<?xml version="1.0" encoding="utf-8"?>
<svg id="master-artboard" viewBox="0 0 1400 980" version="1.1" xmlns="http://www.w3.org/2000/svg" x="0px" y="0px" enable-background="new 0 0 1400 980" width="1400px" height="980px">
<path fill="#151D38" d="M923.9,118c0.4,0.3,0.8,0.6,1.1,0.9c1.8,1.5,2.2,3.3,1.2,5.3c-0.4,0.7-0.7,1.4-0.4,2.2&#10;&#9;&#9;c1.8,4.7,2.6,9.7,2.9,14.8c0,0.3-0.1,0.7,0.3,0.8c0.4,0.1,0.5-0.3,0.6-0.6c1.8-4.1,3.5-8.2,5.3-12.3c0.3-0.8,0.1-1.3-0.3-2&#10;&#9;&#9;c-0.6-1.1-0.7-2.3-0.3-3.5c0.7-1.7,2.3-2.8,4.1-2.6c1.8,0.2,3.3,1.5,3.7,3.3c0.4,2-0.4,4-2.3,4.5c-1.9,0.4-2.3,1.7-2.9,3&#10;&#9;&#9;c-1.8,4.2-3.6,8.4-5.3,12.6c-0.1,0.3-0.5,0.8-0.1,1.1c0.3,0.3,0.7-0.1,1-0.4c3.6-2.4,7.2-4.8,11.3-6.2c0.9-0.3,1.1-1.1,1.6-1.7&#10;&#9;&#9;c1.7-1.7,4.2-1.7,5.8-0.1c1.7,1.7,1.7,4.3-0.1,6c-1.5,1.4-4,1.5-5.6-0.2c-1-1.1-1.8-0.9-2.9-0.4c-4.7,2.2-9,5.3-13.1,8.4&#10;&#9;&#9;c-0.8,0.6-0.9,1.4-0.9,2.3c0,4.3,0.3,8.6,0.7,12.9c2.6,27.3,10.1,53.3,19.6,78.8c2.7,7.3,5.7,14.6,9,21.7c0.3,0.7,0.6,1.3,0.9,1.9&#10;&#9;&#9;c0.2,0.3,0.6,0.3,0.6-0.1c0.1-0.9,0.2-1.7,0.2-2.6c0.9-26.4,5.5-52.1,13.4-77.2c2.3-7.2,4.8-14.2,7.8-21.1c0.7-1.6,0.5-2.8-0.4-4.2&#10;&#9;&#9;c-2-2.8-4.3-5.3-6.9-7.6c-1.4-1.3-2.9-2.5-4.4-3.8c-0.9-0.8-1.7-1.2-3-0.9c-2.2,0.5-4.2-1.2-4.5-3.2c-0.3-2.4,1.1-4.5,3.3-4.8&#10;&#9;&#9;c2.5-0.3,4.7,1.1,4.7,3.6c0,1.7,0.8,2.6,2,3.5c3.9,3.2,7.7,6.5,10.7,10.6c0.2,0.2,0.3,0.6,0.7,0.5c0.5-0.1,0.3-0.7,0.3-1&#10;&#9;&#9;c-0.2-1.5-0.6-3-1.2-4.4c-2.4-5.7-6-10.5-10.4-14.8c-0.8-0.8-1.6-1.2-2.9-1c-3.2,0.4-5.5-2.4-4.5-5.3c0.6-1.8,2.4-2.9,4.3-2.7&#10;&#9;&#9;c1.9,0.2,3.6,1.7,3.6,3.6c0,1.7,0.8,2.6,1.9,3.6c3.2,3.1,6,6.7,8.3,10.5c0.3,0.5,0.6,1,0.9,1.4c0.1,0.2,0.3,0.4,0.5,0.3&#10;&#9;&#9;c0.1-0.1,0.2-0.3,0.2-0.4c0-0.4,0-0.8,0-1.2c-0.1-4.9-0.7-9.7-1.1-14.6c-0.1-1-0.5-1.7-1.4-2.3c-2.1-1.4-2.5-4-1-5.9&#10;&#9;&#9;c1.4-1.8,4-2.1,5.8-0.8c1.9,1.5,2.1,4.1,0.3,6.1c-0.7,0.7-0.9,1.4-0.8,2.3c0.7,6.8,1.1,13.5,1.4,20.3c0,0.3-0.1,0.7,0.3,0.8&#10;&#9;&#9;c0.4,0.1,0.5-0.3,0.7-0.5c2.7-3.9,5.4-7.7,8.1-11.6c0.6-0.8,0.3-1.5,0.2-2.3c-0.4-2.7,1.1-4.7,3.6-4.9c2.3-0.2,4.1,1.3,4.4,3.5&#10;&#9;&#9;c0.3,2.2-1.1,4.5-3.3,4.5c-1.9,0-2.7,1.1-3.5,2.3c-2.3,3.4-4.7,6.7-7,10c-0.2,0.3-0.5,0.5-0.3,0.8c0.2,0.3,0.6,0.2,0.9,0.1&#10;&#9;&#9;c3.8-1.2,7.7-2.2,11.7-2.7c0.9-0.1,1.3-0.7,1.9-1.3c1.6-1.9,4.3-2,6-0.4c1.6,1.5,1.7,3.9,0.3,5.6c-1.4,1.7-4.3,2.1-5.7,0.4&#10;&#9;&#9;c-1.3-1.6-2.7-1.4-4.3-1.1c-4.7,0.8-9.1,2.3-13.6,4c-1.3,0.5-1.8,1.4-2.3,2.6c-5.7,13.2-10.3,26.9-13.8,40.8&#10;&#9;&#9;c-3.6,14.1-6.1,28.4-7.5,42.9c-0.7,6.6-1.2,13.2-1.2,19.9c0,0.6,0,1.3,0.1,1.9c0,0.4,0.3,0.5,0.6,0.2c0.3-0.3,0.5-0.6,0.8-0.9&#10;&#9;&#9;c12.4-16.1,24.7-32.2,37.1-48.3c0.9-1.2,1-2.2,0.2-3.4c-1.5-2.3-3.4-4.2-5.3-6.2c-1-1-2-1.8-3-2.8c-1.2-1.2-2.4-2-4.4-1.7&#10;&#9;&#9;c-2.2,0.4-4.2-1.7-4.2-4c0-2.1,1.8-4,3.9-4.1c2.2-0.1,4.2,1.5,4.2,3.7c0,1.6,0.7,2.4,1.8,3.3c2.3,1.9,4.4,3.9,6.4,6.1&#10;&#9;&#9;c0.3,0.3,0.6,1,1.1,0.8c0.6-0.3,0.3-1,0.2-1.5c-0.7-4.3-1.8-8.4-2.9-12.6c-0.2-0.6-0.4-1.2-0.5-1.8c-0.3-1.2-0.8-2-2.1-2.6&#10;&#9;&#9;c-2.1-0.8-2.8-3-2.1-5c0.7-1.9,2.5-3,4.6-2.7c2.8,0.4,4.3,3.5,2.8,6.1c-0.7,1.1-0.7,2-0.4,3.1c1.6,5.3,3,10.6,3.8,16.1&#10;&#9;&#9;c0,0.2,0.1,0.5,0.2,0.7c0.1,0.2,0.3,0.4,0.4,0.6c0.2-0.2,0.4-0.3,0.5-0.5c0.7-1.4,1.4-2.7,2-4.1c1.8-3.8,3.6-7.7,5.3-11.5&#10;&#9;&#9;c0.5-1,0.6-1.8,0.1-2.9c-1-2.3,0.1-4.8,2.3-5.5c2.2-0.7,4.6,0.4,5.3,2.5c0.8,2.3-0.3,4.6-2.8,5.3c-1.3,0.3-1.8,1-2.3,2.1&#10;&#9;&#9;c-1.7,3.7-3.4,7.4-5.1,11.1c-0.3,0.6-0.8,1.2-0.6,2c0,0,0,0.1-0.1,0.1c0,0-0.1-0.1-0.1-0.1c0.2-0.3-0.2-0.1,0.1,0&#10;&#9;&#9;c0.5-0.5,1-1,1.5-1.5c0.9-0.8,1.5-1.6,1.5-3c0-2.6,2.2-4.1,4.8-3.8c2.1,0.3,3.6,2.2,3.3,4.5c-0.3,2.4-2.3,3.9-4.8,3.4&#10;&#9;&#9;c-0.9-0.1-1.5-0.2-2.2,0.5c-1.7,1.7-3.4,3.4-5.1,5c-0.3,0.3-0.7,0.5-0.6,1c0.1,0.5,0.6,0.4,1,0.4c0.8,0.1,1.6,0.2,2.4,0.3&#10;&#9;&#9;c1.2,0.2,2.2,0.2,3.3-0.7c1.9-1.6,4.5-1,5.9,0.9c1.2,1.9,0.7,4.5-1.2,5.7c-1.9,1.2-4.6,0.7-5.6-1.3c-0.7-1.3-1.6-1.6-2.8-1.8&#10;&#9;&#9;c-0.3,0-0.6-0.1-0.9-0.2c-3.6-0.7-6.3,0.1-8.8,3.4c-11.3,15.2-23,30.1-34.5,45.2c-0.5,0.6-1.5,1.3-1.1,1.9c0.5,0.7,1.5-0.2,2.2-0.4&#10;&#9;&#9;c22.1-8.5,42.7-19.6,61.2-34.5c0.7-0.6,1.3-1.2,2-1.7c2.6-1.8,3.5-4.5,3.6-7.5c0.1-4.3-0.9-8.4-2.2-12.5c-0.3-0.9-0.8-1.2-1.7-1.5&#10;&#9;&#9;c-2.2-0.8-3.3-2.9-2.7-4.9c0.6-2.3,3.1-3.6,5.3-2.8c2.3,0.8,3.5,3.3,2.4,5.4c-0.8,1.5-0.6,2.7-0.1,4.1c1,3.2,1.7,6.5,1.9,9.9&#10;&#9;&#9;c0,0.3-0.1,0.7,0.3,0.8c0.4,0.1,0.5-0.3,0.6-0.6c1.5-3.4,2.5-6.9,3.4-10.5c0.2-1-0.1-1.6-0.8-2.3c-1.2-1.2-1.4-2.7-0.8-4.2&#10;&#9;&#9;c0.6-1.6,2.3-2.8,3.9-2.7c1.7,0.1,3,0.9,3.7,2.6c0.7,1.6,0.4,3.7-1.1,4.5c-1.5,0.9-1.9,2.2-2.3,3.7c-0.9,3.7-2.1,7.4-3.7,10.9&#10;&#9;&#9;c-0.2,0.3-0.6,0.8-0.3,1.1c0.4,0.5,0.9-0.1,1.2-0.3c2.4-1.4,4.8-2.9,7.2-4.3c1.1-0.7,1.9-1.3,2.1-2.9c0.3-2.3,2.5-3.5,4.9-3.1&#10;&#9;&#9;c2,0.4,3.4,2.3,3.1,4.5c-0.3,2.4-2.7,4.2-5.1,3.4c-1.3-0.5-2.2-0.2-3.3,0.5c-2.8,1.7-5.6,3.4-8.4,5.1c-0.3,0.2-0.6,0.4-0.6,0.6&#10;&#9;&#9;c-0.1,0.6,0.5,0.4,0.9,0.5c1.8,0.5,3.6,0.8,5.3,1.4c1.6,0.5,3,0.9,4.7-0.1c1.5-0.8,3.4-0.1,4.5,1.3c1.1,1.4,1.2,3.4,0.1,4.9&#10;&#9;&#9;c-0.9,1.3-2.2,1.8-3.8,1.7c-1.6-0.1-2.9-0.9-3.3-2.4c-0.4-1.5-1.3-2-2.6-2.4c-2.7-0.8-5.4-1.6-8.2-1.8c-2-0.2-3.9,0-5.6,1.4&#10;&#9;&#9;c-16.2,13.8-34.4,24.3-53.9,32.9c-3.1,1.4-6.2,2.6-9.3,3.9c-0.5,0.2-1.1,0.4-1.6,0.6c-0.2,0.1-0.5,0.3-0.5,0.5&#10;&#9;&#9;c0,0.5,0.5,0.3,0.7,0.4c3.4,0.1,6.7,0.4,10.1,0.3c7.5-0.1,15-0.8,22.4-2c15-2.5,29.4-7,43.2-13.1c11.9-5.2,23.2-11.5,33.9-18.8&#10;&#9;&#9;c2.7-1.8,3.6-4.1,3.2-7.1c-0.6-5-2.2-9.8-4-14.5c-0.3-0.9-1.1-1-1.8-1.3c-2-0.7-2.8-2-2.8-4c0-1.7,0.8-3,2.3-3.6&#10;&#9;&#9;c1.5-0.6,3-0.6,4.3,0.5c1.3,1.1,2.1,2.8,1.2,4.3c-1.1,1.9-0.4,3.3,0.2,5c1.5,4.3,2.9,8.6,3.4,13.2c0,0.3-0.1,0.9,0.4,1&#10;&#9;&#9;c0.5,0.1,0.7-0.4,0.9-0.7c2.4-3.5,4.1-7.4,5.4-11.5c0.2-0.8,0.4-1.6,0.6-2.3c0.5-1.6,0.7-2.9-0.8-4.3c-1.6-1.6-0.9-4.4,1-5.7&#10;&#9;&#9;c1.7-1.1,4.2-0.8,5.4,0.7c1.5,1.7,1.4,4.5-0.5,5.7c-1.4,0.9-1.8,2-2.1,3.5c-1,4.6-2.7,9-5.1,13.2c-0.2,0.3-0.6,0.7-0.2,1&#10;&#9;&#9;c0.3,0.3,0.7-0.1,1.1-0.2c3.6-1.7,7.2-3.4,10.8-5.1c0.7-0.3,1.1-0.6,1.4-1.5c0.7-2.3,1.8-3.3,3.8-3.4c1.9-0.1,3.1,0.8,4,3&#10;&#9;&#9;c0.1,0.1,0.2,0.2,0.3,0.3c0,0.5,0,1,0,1.4c-0.1,0.2-0.3,0.3-0.4,0.5c-1,2.6-3,3.5-5.5,2.4c-0.8-0.4-1.5-0.6-2.5-0.2&#10;&#9;&#9;c-5,2.3-10,4.7-14.9,7.2c-0.4,0.2-0.9,0.3-0.9,0.7c0,0.4,0.5,0.5,0.9,0.7c3.5,1.5,6.6,3.6,9.7,5.8c0.9,0.7,1.7,1.1,3,0.8&#10;&#9;&#9;c2.4-0.5,4.5,1.2,4.8,3.6c0.2,2.2-1.3,4.2-3.5,4.4c-2.5,0.3-4.6-1.2-4.6-3.7c0-1.5-0.7-2.2-1.7-2.9c-2.9-2-5.8-4-9.1-5.4&#10;&#9;&#9;c-2.2-1-4.1-0.8-6.2,0.7c-23.9,16.6-50.1,27.8-78.9,32.6c-11.9,2-24,2.6-36.1,1.3c-0.4,0-1-0.1-1.1,0.1c-0.3,0.5,0.2,0.9,0.5,1.2&#10;&#9;&#9;c5.1,6,11.4,10.5,18.4,13.9c8.5,4.1,17.5,6.4,26.9,7.7c15.2,2.1,30.5,1.6,45.7-0.4c6.6-0.8,13.1-1.9,19.6-3.3&#10;&#9;&#9;c2-0.4,1.8-0.6,1.3-2.1c-1.3-3.4-1.5-7-1.1-10.6c0.1-1.2,0.2-2.2-0.6-3.4c-1.3-1.9-0.6-4.5,1.4-5.6c2-1.1,4.5-0.5,5.6,1.5&#10;&#9;&#9;c1.2,2.1,0.5,4.7-1.8,5.7c-1.2,0.5-1.6,1.3-1.8,2.5c-0.3,2.5-0.1,4.9,0.5,7.4c0.1,0.3,0.1,0.7,0.5,0.6c0.1,0,0.3-0.3,0.4-0.5&#10;&#9;&#9;c1.2-3.6,3-6.9,5.2-9.9c0.7-0.9,0.3-1.8,0.2-2.7c-0.2-3.2,2.8-5.3,5.6-4.1c1.7,0.7,2.7,2.4,2.5,4.2c-0.2,1.8-1.5,3.5-3.4,3.4&#10;&#9;&#9;c-2-0.1-2.8,1.1-3.7,2.5c-1.3,2.1-2.5,4.3-3.4,6.6c-0.1,0.3-0.5,0.8-0.1,1.1c0.3,0.3,0.7-0.1,1-0.3c3.8-2.4,7.2-5.3,10.4-8.4&#10;&#9;&#9;c0.7-0.6,0.4-1.3,0.3-2c-0.2-2.3,1.3-4.1,3.5-4.4c2.5-0.3,4.5,1.3,4.7,3.7c0.2,2.4-1.6,4.6-4,4.4c-1.6-0.2-2.5,0.5-3.5,1.5&#10;&#9;&#9;c-2.8,2.7-5.9,5.2-9.1,7.4c-0.3,0.2-0.9,0.3-0.7,0.8c0.1,0.4,0.7,0.3,1,0.3c3.1,0.1,6.2-0.5,9.2-1.4c1.1-0.3,1.5-0.8,1.8-1.9&#10;&#9;&#9;c0.6-2.4,2.8-3.5,5-2.9c2.2,0.6,3.5,2.9,2.9,5.1c-0.6,2.2-3.1,3.7-5.3,2.7c-1.4-0.6-2.5-0.4-3.9,0c-3.3,1-6.7,1.4-10.2,1.4&#10;&#9;&#9;c-0.6,0-1.5-0.3-1.8,0.3c-0.3,0.8,0.7,1.1,1.1,1.6c0.4,0.4,0.8,0.8,1.3,1.1c1,0.9,2,1.5,3.6,0.9c2.3-0.8,4.6,0.8,5,3.2&#10;&#9;&#9;c0.4,2.1-1,4.2-3.1,4.7c-2.3,0.5-4.5-0.8-4.8-3.1c-0.2-1.4-0.8-2.1-1.8-2.9c-1.9-1.4-3.7-3.1-5.1-5.1c-0.6-0.9-1.2-1.1-2.2-0.8&#10;&#9;&#9;c-8.7,2.1-17.6,3.5-26.5,4.4c-17.7,1.8-35.3,1.9-52.7-2.2c-9.3-2.2-18.1-5.7-26.1-11.2c-4.1-2.9-7.9-6.3-11.1-10.2&#10;&#9;&#9;c-1.7-2.1-1.5-1.7-2.7,0.1c-5.6,8.1-10.9,16.4-16,24.8c-10.6,17.6-20.4,35.7-29.8,53.9c-0.3,0.6-1.1,1.3-0.6,1.9&#10;&#9;&#9;c0.5,0.6,1.3-0.1,2-0.3c7.1-2.1,14.3-3.4,21.7-3.7c1.5,0,2.1-0.6,2.4-2c0.7-2.9,2-5.6,3.9-7.9c5.1-6.5,12-9.1,20.1-8.5&#10;&#9;&#9;c9.4,0.7,16.7,5,22,12.8c1.6,2.4,2.9,5,4.3,7.5c1.5,2.6,2.8,5.2,5.4,6.9c1.1,0.7,0.9,2.1-0.4,2.6c-2.9,1-4.8,3.2-6.7,5.2&#10;&#9;&#9;c-2.1,2.1-4,4.4-6.2,6.4c-9,8-21.8,9.9-31.9,4.5c-7.6-4-11.3-10.5-11.7-19c-0.1-1.4,0-2.7,0.1-4.1c0.1-1.2-0.4-1.6-1.5-1.5&#10;&#9;&#9;c-3.1,0.3-6.2,0.5-9.3,1c-4.8,0.8-9.5,2-14.2,3.5c-1.8,0.6-3,1.6-3.8,3.3c-5,10.2-10.1,20.3-15.1,30.5&#10;&#9;&#9;c-10.9,22.5-21.4,45.2-31.4,68.2c-0.7,1.6-1.7,2.1-2.4,1.7c-0.9-0.4-1-1.3-0.3-3c6-13.8,12.2-27.5,18.6-41.1&#10;&#9;&#9;c8.5-18.2,17.2-36.3,26.2-54.2c13.4-26.4,27.3-52.5,43.1-77.5c3-4.8,6.3-9.5,9.4-14.2c1.1-1.6,1.1-1.6-0.7-2.5&#10;&#9;&#9;c-24.6-12.9-42.9-31.9-55.2-56.8c-4-8.1-7-16.6-9.2-25.4c-0.5-2.2-0.5-2.2-2.7-1.8c-1.9,0.3-3.8,0.4-5.7,0.4c-1.7,0-3.3-0.1-5,0.9&#10;&#9;&#9;c-1.8,1.2-4.3,0-5.2-1.9c-0.9-2-0.1-4.3,1.8-5.4c1.9-1,4.6-0.5,5.4,1.5c0.8,2.1,2.2,2.1,3.8,1.9c1.4-0.2,3,0.4,4.3-0.7&#10;&#9;&#9;c-0.6-1.3-1.9-1.9-2.8-2.9c-2.2-2.2-4.4-4.4-6.6-6.6c-0.7-0.8-1.4-1.3-2.6-1.4c-2.6-0.1-4.1-2.1-3.8-4.6c0.3-2.2,2.2-3.7,4.4-3.5&#10;&#9;&#9;c2.4,0.2,4.2,2.3,3.6,4.7c-0.4,1.5,0.1,2.4,1.1,3.3c2.3,2.2,4.5,4.5,6.8,6.7c0.3,0.3,0.6,0.7,1,0.5c0.4-0.2,0.1-0.7,0-1&#10;&#9;&#9;c-1.2-5.5-2.5-11.1-3.7-16.6c-0.2-0.9-0.7-1.4-1.6-1.9c-2.4-1.3-3-4.2-1.4-6.1c1.4-1.8,3.8-2.1,5.6-0.9c1.7,1.2,2.5,3.7,1.2,5.3&#10;&#9;&#9;c-1.3,1.6-0.9,3-0.6,4.6c1.2,5.2,2.4,10.4,3.5,15.7c0.1,0.4,0,0.9,0.4,1c0.6,0.2,0.7-0.5,0.9-0.9c2-4.3,3.2-8.8,4.2-13.5&#10;&#9;&#9;c0.2-1.1-0.4-1.6-0.9-2.3c-1.8-2.5-0.5-5.8,2.3-6.5c1.9-0.4,3.8,0.5,4.6,2.2c0.9,1.8,0.5,4.1-1.3,5.1c-1.5,0.8-1.8,2-2.1,3.4&#10;&#9;&#9;c-0.8,3.9-1.9,7.8-3.5,11.4c-0.2,0.4-0.5,0.8-0.1,1.1c0.4,0.3,0.7-0.2,1-0.4c1.5-1.2,2.9-2.5,4.4-3.7c1.1-0.9,1.7-1.8,1.6-3.4&#10;&#9;&#9;c-0.1-2.4,1.7-4,4.2-3.9c2.2,0.1,3.9,1.8,3.9,4c0,2.2-1.9,4.4-4.1,4c-1.8-0.3-2.6,0.6-3.7,1.5c-2.9,2.5-5.7,5.1-9.2,6.9&#10;&#9;&#9;c-1.1,0.5-1,1.2-0.8,2.1c1.1,4.5,2.4,9,4,13.3c10.5,28.5,28.9,50.4,55.2,65.6c0.8,0.4,1.6,0.8,2.4,1.2c0,0,0,0,0,0.1&#10;&#9;&#9;c0.5-0.9-0.2-1.5-0.5-2.2c-9.9-21.5-17.8-43.8-23.5-66.8c-3.6-14.5-6.1-29.1-6.9-44c-0.1-2-0.1-4-0.1-6c0-1-0.2-1.6-1.3-2&#10;&#9;&#9;c-5.2-1.8-10.5-3.2-16-4.1c-1-0.2-1.7,0.1-2.5,0.8c-1.8,1.7-4.5,1.5-5.9-0.3c-1.4-1.7-1.1-4.4,0.6-5.8c1.8-1.5,4.4-1.1,5.9,0.9&#10;&#9;&#9;c0.5,0.7,1,1.4,2,1.5c4.5,0.6,8.9,1.7,13.3,3c0.4,0.1,0.8,0.4,1.1,0.1c0.2-0.3-0.2-0.7-0.4-1c-3.9-5.2-8.5-9.8-14.5-12.7&#10;&#9;&#9;c-1.1-0.5-1.9-0.6-2.9,0.4c-1.8,1.7-4.4,1.4-5.9-0.5c-1.4-1.8-1-4.4,0.7-5.8c1.8-1.4,4.5-1,5.9,1c0.5,0.7,0.9,1.2,1.7,1.5&#10;&#9;&#9;c6.6,2.6,11.6,7.2,16,12.6c0.6,0.7,1.2,2.2,1.8,1.9c0.9-0.4,0.4-1.8,0.3-2.8c-0.2-4.7-0.9-9.4-2.5-13.9c-0.3-0.9-0.5-1.8-1.8-2&#10;&#9;&#9;c-1.7-0.3-2.7-1.6-3-3.3c-0.3-1.9,0.5-3.3,2.1-4.2c0.3-0.2,0.5-0.4,0.8-0.6C922.3,118,923.1,118,923.9,118z" transform="matrix(1, 0, 0, 1, 0, 0)"/><path fill="#93B690" d="M961.2,384.6c4.7-0.1,8-0.6,11.2-1.9c4.3-1.8,7.7-4.8,10.9-8.1c2.4-2.5,4.5-5.2,7.3-7.2&#10;&#9;&#9;c0.6-0.4,0.9-0.8,0.3-1.5c-2-2.3-3.3-5.1-4.8-7.7c-1.3-2.4-2.7-4.7-4.4-6.9c-5.8-7.2-13.4-10.4-22.6-9.6&#10;&#9;&#9;c-7.7,0.7-14.2,6.1-16.5,13.4c-0.5,1.8-0.5,1.9,1.4,1.9c3.5,0.1,7,0.5,10.5,1c3.8,0.6,7.5,1.5,11.2,2.7c0.5,0.2,1.2,0.2,1.3,0.9&#10;&#9;&#9;c0.2,1.2-1,2.2-2.2,1.9c-0.3-0.1-0.6-0.2-0.9-0.3c-6.6-2.1-13.4-3-20.3-3.3c-2-0.1-2.1,0-2.3,2.1c-0.1,1.2-0.1,2.4-0.1,3.6&#10;&#9;&#9;c0.4,7,3.4,12.5,9.6,16.1C954.5,383.7,958.5,384.6,961.2,384.6z" transform="matrix(1, 0, 0, 1, 0, 0)"/><path fill="#151D38" d="M398.3,816.4c-0.7-2.3-2.4-4.1-3.6-6.1c-0.4-0.7-1.3-0.4-2-0.7c-2-0.6-3.3-2.7-2.9-4.7&#10;&#9;&#9;c0.4-2.1,2.1-3.5,4.3-3.5c2.1,0.1,3.8,1.7,4,3.7c0.1,0.8,0,1.6-0.4,2.3c-0.5,0.8-0.3,1.5,0.2,2.2c1.3,2.1,2.6,4.2,4.2,6.1&#10;&#9;&#9;c2.2,2.7,4.8,4.6,8,5.8c11.3,4.2,22.9,7.7,34.7,10.3c0.2,0.1,0.5,0.2,0.7,0.2c0.4,0,1,0.4,1.2-0.1c0.2-0.4-0.4-0.6-0.7-0.8&#10;&#9;&#9;c-2.2-1.6-4.4-3.2-6.6-4.8c-8.4-6.3-16.5-12.9-23.6-20.7c-0.8-0.9-1.6-0.9-2.5-0.9c-2.5-0.1-4.1-1.7-4.1-4.1&#10;&#9;&#9;c-0.1-2.4,1.5-4.1,3.9-4.2c2.4-0.1,4.6,1.5,4.2,3.8c-0.3,2.4,0.9,3.7,2.3,5.1c7.3,7.6,15.5,14,24,20.3c3.1,2.3,6.3,4.4,9.4,6.7&#10;&#9;&#9;c1.7,1.2,3.5,1.9,5.5,2.2c7.9,1.1,15.8,2.1,23.8,2.5c5.8,0.3,11.5,0.4,17.3,0.3c0.4,0,0.9,0.2,1.1-0.2c0.3-0.6-0.4-0.8-0.7-1&#10;&#9;&#9;c-7.6-5.4-15.1-11-22.5-16.8c-1.9-1.5-3.8-3.1-5.8-4.6c-6-4.6-11.6-9.7-17.3-14.6c-5.7-4.9-11.2-10-16.7-15.1&#10;&#9;&#9;c-19.8-18.4-38.5-37.9-56.3-58.3c-1.1-1.2-2.1-1.7-3.7-1.4c-4,0.6-8,0.2-11.9-0.8c-4-1-7.7-0.6-11.6,0.6c-0.9,0.3-1.8,0.6-2.7,0.9&#10;&#9;&#9;c-1.5,0.5-2.5,1-2.8,3c-0.4,3-3.8,4.6-6.7,3.6c-2.9-1-4.3-4.2-3.1-7c1.2-2.8,4.6-4.1,7.2-2.5c1.6,1,2.7,0.7,4.2,0.2&#10;&#9;&#9;c1.3-0.5,2.7-0.9,4.1-1.3c0.2-0.1,0.4-0.2,0.6-0.3c-0.2-0.2-0.3-0.4-0.5-0.5c-3.1-1.4-6.1-2.9-8.9-4.6c-0.8-0.5-1.3,0-2,0.2&#10;&#9;&#9;c-3.3,1.3-6.5-0.4-7.3-3.7c-0.6-2.8,1.2-5.6,4-6.1c3.2-0.6,6.2,1.3,6.2,4.4c-0.1,2.3,1.1,3,2.7,3.9c6.1,3.3,12.4,5.9,19.3,7&#10;&#9;&#9;c2.5,0.4,4.9,0.6,7.4,0.5c0.4,0,0.9,0,1.1-0.4c0.2-0.4-0.2-0.7-0.5-1c-2.5-3-5.1-5.9-7.6-8.9c-7.9-9.3-15.7-18.8-23.2-28.5&#10;&#9;&#9;c-1-1.3-1.9-1.7-3.6-1.3c-9.6,2.2-18.4,0.1-26.4-5.4c-6.9-4.7-12.4-10.8-17.4-17.4c-1.1-1.4-1-1.5,0.9-1.8c7.3-0.9,14.5-0.8,21.7,1&#10;&#9;&#9;c0.3,0.1,0.6,0.2,0.9,0.2c0.8,0.2,0.8-0.3,0.7-0.8c0-0.2-0.1-0.3-0.2-0.4c-2.4-7.9-2.9-16-2.8-24.2c0-0.4,0-0.8,0.1-1.2&#10;&#9;&#9;c0.1-0.7,0.4-1.1,1.1-0.6c0.2,0.1,0.4,0.2,0.6,0.4c7.1,4.5,13.4,9.9,18,17c0.2,0.3,0.4,0.7,0.6,1c0.3,0.3,0.6,0.2,0.8-0.1&#10;&#9;&#9;c0.3-0.5,0.5-1,0.7-1.5c2.9-6.4,6.7-12.2,11.1-17.6c0.3-0.3,0.5-0.6,0.8-0.9c0.4-0.4,0.7-0.2,0.9,0.2c0.2,0.5,0.4,1,0.6,1.6&#10;&#9;&#9;c2.6,7.2,4.4,14.6,3.8,22.3c-0.7,9.6-3.7,18.3-10.7,25.3c-1.1,1.1-1.2,1.1-0.1,2.5c3.8,4.8,7.6,9.5,11.4,14.2&#10;&#9;&#9;c5.9,7.3,11.9,14.4,18.1,21.5c0.1,0.1,0.2,0.2,0.3,0.4c0.4,0.4,0.8,1.2,1.2,1c0.5-0.2,0-1-0.1-1.5c-0.8-3.3-1.3-6.6-1.6-9.9&#10;&#9;&#9;c-0.9-10.7,2.2-20,9.7-27.8c0.2-0.2,0.4-0.5,0.7-0.7c1.6-1.5,2.6-1.3,3.4,0.7c1.5,3.8,2.3,7.8,2.6,11.9&#10;&#9;&#9;c0.7,11.4-2.9,21.2-10.5,29.7c-1.2,1.3-1.2,1.3-0.1,2.6c5.8,6.5,11.6,13,17.6,19.4c8,8.6,16.2,17.1,24.6,25.3&#10;&#9;&#9;c12.8,12.6,26,24.8,39.8,36.4c0.6,0.5,1.3,1.6,1.9,1.2c0.7-0.4,0-1.5-0.2-2.2c-1.5-7.3-3.5-14.4-5.5-21.6c-0.5-1.8-1.4-2.4-3.1-2.6&#10;&#9;&#9;c-4.8-0.5-9.4-1.8-13.7-4c-5.7-3-9.7-7.5-12.2-13.4c-1-2.2-0.5-3,1.9-2.9c7.3,0.1,13.8,2.3,19.6,6.8c0.8,0.6,1.6,1.3,2.4,2&#10;&#9;&#9;c0,0,0-0.1,0-0.1l0,0.1c0.3-0.7-0.1-1.2-0.3-1.8c-1.5-4-3.1-7.9-4.8-11.8c-0.7-1.7-0.8-1.7-2.7-1.5c-3.9,0.5-7.8,0.6-11.7-0.4&#10;&#9;&#9;c-4.3-1.1-7.9-3.5-10.7-6.9c-1.7-2-1.3-3.1,1.3-3.6c6.2-1.2,12.1-0.6,17.6,2.6c0.3,0.2,0.7,0.4,1,0.6c0.2,0.1,0.4,0.1,0.6,0.1&#10;&#9;&#9;c0-0.2,0.1-0.5,0-0.7c-0.7-1.5-1.5-3-2.3-4.5c-1.5-2.9-1.5-3-4.8-2.6c-3.7,0.5-7.3,0.3-10.9-0.6c-4.2-1.1-7.7-3.5-10.5-6.8&#10;&#9;&#9;c-1.7-2-1.3-3.1,1.4-3.6c5.8-1.1,11.5-0.7,16.8,2.2c0.4,0.2,0.7,0.4,1.1,0.6c0.1,0.1,0.3,0.1,0.4,0c0.3-0.2,0.1-0.4,0-0.6&#10;&#9;&#9;c-1.3-2.1-2.7-4.2-4-6.2c-0.4-0.7-1.1-0.8-1.8-1.1c-3.1-1.4-6-3.1-8.5-5.3c-3.7-3.3-5.8-7.4-6.4-12.3c-0.4-2.7,0.5-3.4,3.1-2.5&#10;&#9;&#9;c8.4,3.1,13.9,8.9,15.9,17.8c0.6,2.6,2.2,4.4,3.4,6.5c0.4,0.7,0.7,0.3,0.9-0.3c0.4-1.5,0.8-2.9,1.3-4.4c1.9-5.5,5.5-9.5,10.7-12&#10;&#9;&#9;c0.4-0.2,0.7-0.4,1.1-0.5c2.3-0.8,3.1-0.2,2.9,2.3c-0.4,4.4-1.6,8.5-4.1,12.1c-2.1,3.1-4.8,5.5-8,7.4c-1.4,0.8-1.4,0.9-0.6,2.4&#10;&#9;&#9;c3.5,6.2,6.7,12.5,9.7,19c0.2,0.4,0.3,0.7,0.5,1.1c0.1,0.2,0.4,0.2,0.5,0.4c0.1-0.1,0.2-0.3,0.2-0.4c0.3-1.3,0.6-2.6,1-4&#10;&#9;&#9;c2.1-7.8,6.3-14.1,13.5-18.1c1.2-0.7,2.4-1.2,3.7-1.7c1.9-0.7,2.9-0.1,2.7,1.9c-0.6,8-3.1,15.2-8.8,21c-2.5,2.6-5.4,4.8-8.6,6.5&#10;&#9;&#9;c-1.6,0.9-1.7,0.9-1,2.5c2.1,5.1,3.9,10.3,5.6,15.5c0.1,0.4,0.3,0.8,0.7,0.8c0.1,0,0.3-0.5,0.3-0.8c0.7-2.4,1.5-4.9,2.6-7.2&#10;&#9;&#9;c3-6.4,7.9-10.8,14.3-13.5c2.6-1.1,3.4-0.5,3.2,2.3c-0.8,11.4-6.1,20.2-15.9,26.1c-0.3,0.2-0.7,0.4-1.1,0.6c-1.2,0.5-1.4,1.2-1,2.4&#10;&#9;&#9;c2,7,3.7,14.1,4.9,21.2c0.2,1.2,1,1.9,1.9,2.6c8.5,6.9,17.2,13.6,26.1,20c13.9,9.9,28.2,19.1,43.2,27.2c2.1,1.1,2.2,1.5,0.8,3.4&#10;&#9;&#9;c-0.3,0-0.6,0-1,0c-3.8-2.2-7.6-4.3-11.4-6.5c-7.6-4.4-15.1-9.1-22.3-14c-1.4-1-2.8-1.4-4.6-1.2c-5.9,0.4-11.8,0.3-17.7,0.1&#10;&#9;&#9;c-1.4,0-2.1,0.3-2.7,1.6c-4.5,9.7-12.2,15.4-22.6,17.5c-0.9,0.2-1.7,0.3-2.6,0.3c-1.3,0-1.9-0.7-1.6-2c0.1-0.5,0.3-1.1,0.5-1.6&#10;&#9;&#9;c2.4-6.9,6.9-12,13.5-15.2c0.7-0.4,2.1-0.5,2-1.3c0-0.5-1.5-0.5-2.4-0.6c-4.4-0.5-8.7-1.1-13-1.9c-0.9-0.2-1.7,0-2.6,0.3&#10;&#9;&#9;c-5.2,1.9-10.2,4.1-15.3,6.3c-1.1,0.5-1.8,1.2-2.2,2.3c-0.5,1.2-0.8,2.4-1.1,3.7c-0.3,1.3-0.1,2.2,1.2,2.9c1.8,1,2.4,3.1,1.7,5&#10;&#9;&#9;c-0.6,1.7-2.5,2.8-4.4,2.6c-3.1-0.3-5-4.1-2.9-6.5c1.7-1.9,1-4.2,1.7-6.3c0.2-0.5-0.2-0.7-0.7-0.5c-3,1.5-5.9,3.2-8.7,5&#10;&#9;&#9;c-0.9,0.6-0.5,1.4-0.6,2.2c-0.3,2.7-2.8,4.4-5.3,3.6c-2.1-0.6-3.3-2.7-2.9-4.9c0.4-2.1,2.5-3.7,4.6-3.2c1.4,0.4,2.4-0.1,3.5-0.8&#10;&#9;&#9;c7.3-4.7,15.2-8.2,23.1-11.5c1-0.4,2.2-0.4,2.8-1.5c-0.9-0.5-1.9-0.6-2.9-0.8c-22-4.8-43-12.3-62.9-22.8c-1.6-0.8-2.9-1.4-4.9-0.8&#10;&#9;&#9;c-2.2,0.8-4.3-0.8-4.8-3.1c-0.5-2.2,0.9-4.4,3.1-5c2.2-0.5,4.6,0.7,5,3c0.3,1.6,1.2,2.3,2.4,2.9c4.4,2.3,8.8,4.5,13.4,6.5&#10;&#9;&#9;C397.1,816.2,397.6,816.6,398.3,816.4c0,0.1,0,0.2,0.2,0.2c0,0,0.1-0.1,0.1-0.1C398.6,816.3,398.5,816.3,398.3,816.4z" transform="matrix(1, 0, 0, 1, 0, 0)"/><path fill="#93B690" d="M479.5,840.9c-0.3,0-0.6-0.1-0.9-0.1c-4.7,1.2-9.1,3-12.8,6.2c-2.7,2.2-4.7,5-6.1,8.2&#10;&#9;&#9;c-0.4,0.8-0.2,1.2,0.8,1.1c0.2,0,0.5-0.1,0.7-0.1c7.8-2,13.8-6.5,17.8-13.5C479.2,842.1,479.7,841.6,479.5,840.9&#10;&#9;&#9;C479.5,840.8,479.5,840.8,479.5,840.9c0-0.1,0-0.1,0-0.1C479.5,840.8,479.5,840.9,479.5,840.9z" transform="matrix(1, 0, 0, 1, 0, 0)"/><path fill="#23984B" d="M308.1,660.4c-1.3,0-2.6,0-3.8,0c-0.4,0-0.9-0.1-1,0.4c-0.1,0.4,0.3,0.7,0.5,1c2.5,3,5.3,5.8,8.1,8.5&#10;&#9;&#9;c6.2,5.8,13.4,9.5,22,10.1c6,0.4,11.2-1.1,14.8-6.4c7.8-11.7,8.6-24.1,4.5-37.2c-0.3-1-0.8-0.8-1.3-0.1c-0.1,0.2-0.3,0.4-0.4,0.6&#10;&#9;&#9;c-4.4,6.2-8.2,12.8-10.1,20.3c-0.2,0.6-0.2,1.6-0.7,1.6c-0.7,0-0.7-1-0.9-1.7c-2.8-8.6-9-14.5-16-19.8c-1-0.7-1.2-0.6-1.2,0.6&#10;&#9;&#9;c-0.1,3,0.2,5.9,0.6,8.8c0.7,5.6,1.9,11,4.6,16c0.2,0.4,0.4,0.7,0.5,1.1c0.1,0.2,0.1,0.5,0,0.7c-0.1,0.3-0.4,0.1-0.6,0&#10;&#9;&#9;c-0.4-0.2-0.7-0.3-1.1-0.5C320.7,661.4,314.5,660.5,308.1,660.4z" transform="matrix(1, 0, 0, 1, 0, 0)"/><path fill="#93B690" d="M379.9,704.6c0.1,1.2,0.1,2.3,0.2,3.4c0.2,3,0.7,5.9,1.5,8.7c0.2,0.9,0.6,1,1.3,0.3&#10;&#9;&#9;c0.2-0.2,0.3-0.4,0.5-0.6c7.3-10,9.1-20.9,5.8-32.7c-0.4-1.4-0.7-1.4-1.6-0.2C382.2,689.6,379.6,696.7,379.9,704.6z" transform="matrix(1, 0, 0, 1, 0, 0)"/><path fill="#23984B" d="M457.1,777.1c0.4,0,0.8,0.2,1.1-0.2c0.2-0.4-0.1-0.7-0.3-1.1c-0.3-0.4-0.5-0.8-0.8-1.2&#10;&#9;&#9;c-4.7-6.4-11-10.3-18.9-11.6c-0.8-0.1-2.1-0.8-2.5-0.1c-0.5,0.8,0.6,1.7,1.1,2.5C441.5,772.8,448.9,775.7,457.1,777.1z" transform="matrix(1, 0, 0, 1, 0, 0)"/><path fill="#23984B" d="M471.7,734.1c0.1-0.9-0.2-1.1-1.1-0.7c-0.3,0.1-0.6,0.3-0.8,0.5c-8.1,4.6-11.4,12.1-13,20.8&#10;&#9;&#9;c-0.1,0.3-0.1,0.7,0.2,0.8c0.3,0.2,0.6-0.1,0.9-0.2c1.4-0.9,2.8-1.9,4.1-2.9C467.6,747.5,470.6,741.3,471.7,734.1z" transform="matrix(1, 0, 0, 1, 0, 0)"/><path fill="#23984B" d="M465.5,780.8c0,0.5-0.1,0.9,0.2,1.1c0.4,0.2,0.7,0,1.1-0.3c2.3-1.4,4.4-3.2,6.3-5.1&#10;&#9;&#9;c4.2-4.4,6.4-9.8,7.4-15.8c0.1-0.9-0.1-1.2-1-0.8c-0.2,0.1-0.4,0.2-0.6,0.3C470.5,764.7,467,772.2,465.5,780.8z" transform="matrix(1, 0, 0, 1, 0, 0)"/><path fill="#23984B" d="M424.7,729.6c-0.6,0-1.1,0-1.7,0c-0.5,0-1.3-0.1-1.5,0.5c-0.3,0.6,0.5,0.9,0.9,1.3c4.4,3.7,9.5,4.6,15,4.1&#10;&#9;&#9;c0.3,0,0.8-0.1,0.9-0.2c0.2-0.4-0.2-0.7-0.5-0.9C433.9,731.2,429.6,729.6,424.7,729.6z" transform="matrix(1, 0, 0, 1, 0, 0)"/><path fill="#23984B" d="M442.8,751c1-0.1,1.9-0.2,2.9-0.3c0.2,0,0.6-0.1,0.6-0.2c0.1-0.3-0.1-0.6-0.4-0.8c-2.6-2.2-5.5-3.6-8.7-4.3&#10;&#9;&#9;c-2.3-0.5-4.6-0.7-6.9-0.4c-1,0.2-1.1,0.5-0.4,1.2c0.4,0.4,0.8,0.7,1.3,1.1C434.5,750,438.5,750.9,442.8,751z" transform="matrix(1, 0, 0, 1, 0, 0)"/><path fill="#23984B" d="M420.5,705.5c-0.5,0-0.7,0.2-0.6,0.6c0.1,0.5,0.2,0.9,0.4,1.4c1.9,5.4,6,8.7,10.9,11.2&#10;&#9;&#9;c0.2,0.1,0.5,0.2,0.7,0.1c0.4-0.3,0.2-0.7,0.1-1.1c-2-5.4-5.6-9.4-10.8-11.9C420.9,705.6,420.7,705.6,420.5,705.5z" transform="matrix(1, 0, 0, 1, 0, 0)"/><path fill="#23984B" d="M443,727.8c0.2-0.1,0.5-0.2,0.8-0.4c4.8-3.3,7.6-7.8,8.8-13.5c0.1-0.4,0.2-0.8-0.2-1&#10;&#9;&#9;c-0.3-0.2-0.6,0.1-0.9,0.3c-2.9,1.8-5.2,4.2-6.7,7.3c-1,2.1-1.7,4.3-2.2,6.6C442.5,727.3,442.4,727.7,443,727.8z" transform="matrix(1, 0, 0, 1, 0, 0)"/><path fill="#23984B" d="M434.1,857.3c0.7-0.1,1.2-0.5,1.1-1.3c-0.1-0.7-0.6-1.2-1.3-1.1c-0.6,0.1-1,0.5-1,1.1&#10;&#9;&#9;C432.9,856.9,433.4,857.2,434.1,857.3z" transform="matrix(1, 0, 0, 1, 0, 0)"/><path fill="#23984B" d="M378,807.6c-0.1-0.7-0.5-1.2-1.2-1.2c-0.7,0-1.2,0.5-1.2,1.2c0,0.7,0.4,1.2,1.1,1.2&#10;&#9;&#9;C377.5,808.8,377.9,808.3,378,807.6z" transform="matrix(1, 0, 0, 1, 0, 0)"/><path fill="#23984B" d="M418.3,852.7c-0.7,0.1-1.2,0.4-1.2,1.2c0.1,0.8,0.6,1.1,1.3,1.1c0.6,0,1-0.4,1-1.1&#10;&#9;&#9;C419.5,853.1,419.1,852.8,418.3,852.7z" transform="matrix(1, 0, 0, 1, 0, 0)"/><path fill="#23984B" d="M394.1,806.8c0.7-0.1,1.1-0.6,1-1.3c-0.1-0.6-0.4-1.1-1.1-1.1c-0.8,0-1.2,0.5-1.2,1.2&#10;&#9;&#9;C392.9,806.4,393.3,806.8,394.1,806.8z" transform="matrix(1, 0, 0, 1, 0, 0)"/><path fill="#23984B" d="M414.5,800.5c-0.2-0.7-0.6-1.1-1.4-1c-0.7,0.1-1,0.5-0.9,1.2c0,0.7,0.5,1.2,1.2,1.1&#10;&#9;&#9;C414.1,801.8,414.5,801.3,414.5,800.5z" transform="matrix(1, 0, 0, 1, 0, 0)"/><path fill="#151D38" d="M287.9,520.2c0.8-0.8,0.8-1.9,1-2.9c2.2-11.3,7.3-20.9,15.9-28.6c3.4-3,7.2-5.3,11.8-6.1&#10;&#9;&#9;c6.4-1.1,11.7,0.8,15.7,6c2.6,3.4,3.8,7.5,4.6,11.7c0.6,3.3,0.6,3.3,3.5,1.6c5.8-3.4,11.8-6.5,18.2-8.4c3.1-1,6.3-1.6,9.7-1.6&#10;&#9;&#9;c1.6,0,1.8,0.3,1.6,1.8c-0.1,0.7-0.3,1-1,1c-9.9,0.4-18.4,4.9-26.8,9.6c-0.4,0.2-0.8,0.5-1.2,0.7c-0.6,0.4-0.9,0.8,0,1.2&#10;&#9;&#9;c0.4,0.2,0.9,0.4,1.3,0.5c4.9,2.2,8.9,5.5,11.9,10.1c3.2,5,3.1,9.9,0.1,14.9c-1.6,2.6-3.6,4.9-6.1,6.7&#10;&#9;&#9;c-10.1,7.8-21.6,11.6-34.4,11.3c-3.2-0.1-6.4-0.7-9.4-1.8c-8.5-3.1-13.5-9.1-15.4-17.8c-0.2-1-0.1-2.1-1-2.8&#10;&#9;&#9;C287.9,525,287.9,522.6,287.9,520.2z" transform="matrix(1, 0, 0, 1, 0, 0)"/><path fill="#93B690" d="M316.6,518.6c0.2-0.1,0.4-0.2,0.6-0.4c2-1.5,3.9-3,5.9-4.5c0.8-0.6,0.8-1.2,0.5-2.1&#10;&#9;&#9;c-0.7-2.4-1.4-4.8-2.1-7.1c-1.6-5.6-3.2-11.2-4.9-16.8c-0.6-2-0.7-2-2.6-1.2c-2.6,1.1-5,2.6-7.1,4.4c-1.5,1.3-1.5,1.3-0.7,3.2&#10;&#9;&#9;c3,7.6,6.1,15.1,9.1,22.7c0.2,0.4,0.3,0.9,0.5,1.3C316,518.3,316.2,518.6,316.6,518.6z" transform="matrix(1, 0, 0, 1, 0, 0)"/><path fill="#93B690" d="M351.2,530.9c0-0.7-0.5-0.8-0.9-1.1c-2.6-1.6-5.2-3.1-7.8-4.7c-5.1-3-10.2-6-15.2-9.1&#10;&#9;&#9;c-1-0.6-1.8-0.6-2.8,0.2c-1.6,1.3-3.3,2.5-4.9,3.8c-1.4,1.1-1.4,1.2,0.2,2.3c2,1.4,4.1,2.8,6.1,4.2c5.3,3.7,10.7,7.3,16,11&#10;&#9;&#9;c0.7,0.5,1.4,1,2.3,0.3c2.4-1.8,4.8-3.8,6.6-6.3C350.9,531.4,351.1,531.1,351.2,530.9z" transform="matrix(1, 0, 0, 1, 0, 0)"/><path fill="#93B690" d="M340,540.2c-0.3-0.3-0.6-0.5-0.9-0.8c-7.4-5.1-14.9-10.2-22.3-15.4c-0.9-0.6-1.5-0.6-2.3,0.1&#10;&#9;&#9;c-1.8,1.6-3.6,3.1-5.5,4.6c-0.8,0.7-0.9,1.1,0,1.8c6.8,4.5,13.6,9,20.3,13.5c0.5,0.3,0.9,0.6,1.5,0.4c3-1,5.8-2.2,8.6-3.7&#10;&#9;&#9;C339.7,540.6,339.8,540.4,340,540.2z" transform="matrix(1, 0, 0, 1, 0, 0)"/><path fill="#93B690" d="M303.1,494.8c-0.3,0.3-0.6,0.5-0.8,0.7c-1.9,2.2-3.6,4.7-5,7.3c-0.5,0.8-0.4,1.5-0.1,2.3&#10;&#9;&#9;c2.7,6.9,5.5,13.8,8.2,20.7c0.6,1.6,0.7,1.6,2.1,0.4c1.6-1.3,3.2-2.7,4.8-4c1.4-1.2,1.4-1.2,0.8-3c-2.6-6.4-5.1-12.9-7.7-19.3&#10;&#9;&#9;c-0.6-1.4-1.1-2.8-1.7-4.2C303.6,495.3,303.3,495.1,303.1,494.8z" transform="matrix(1, 0, 0, 1, 0, 0)"/><path fill="#93B690" d="M316,547.1c0.4,0,1-0.1,1.5-0.1c2.3-0.2,4.6-0.4,6.9-0.8c0.5-0.1,1.3-0.1,1.4-0.7c0.1-0.5-0.6-0.7-1-0.9&#10;&#9;&#9;c-6-4-12-7.9-17.9-11.9c-0.9-0.6-1.6-0.7-2.5,0.1c-2.1,2-4.3,4-6.5,6c-1.2,1.1-1.1,1.1,0,2.2c0.3,0.3,0.7,0.6,1.1,0.9&#10;&#9;&#9;C304,545.9,309.8,546.8,316,547.1z" transform="matrix(1, 0, 0, 1, 0, 0)"/><path fill="#93B690" d="M353.6,524.3c-0.1-1.5-0.5-3.1-1.4-4.6c-3.3-5.8-8.2-9.4-14.6-11.3c-0.7-0.2-1.4-0.4-2.1,0.1&#10;&#9;&#9;c-2.1,1.4-4.2,2.9-6.3,4.3c-0.5,0.4-0.5,0.8,0,1.1c0.5,0.4,1.1,0.7,1.6,1c6.5,3.8,12.9,7.7,19.4,11.5&#10;&#9;&#9;C353,528,353.5,527.7,353.6,524.3z" transform="matrix(1, 0, 0, 1, 0, 0)"/><path fill="#93B690" d="M334.5,504.1c-0.2-1.1-0.3-2.2-0.6-3.3c-0.8-3.8-1.9-7.4-4.3-10.6c-2.2-2.9-5.2-4.5-8.7-4.9&#10;&#9;&#9;c-1.6-0.2-1.9,0-1.4,1.6c1,3.5,2,7.1,3,10.6c1.2,4.1,2.4,8.1,3.5,12.2c0.3,1.1,0.8,1.2,1.7,0.6c2-1.4,3.9-2.7,5.9-4.1&#10;&#9;&#9;C334.6,505.7,334.6,504.9,334.5,504.1z" transform="matrix(1, 0, 0, 1, 0, 0)"/><path fill="#93B690" d="M295.1,508.1c-0.3,0-0.4,0-0.7,0.8c-2.2,5.6-3.5,11.4-3,17.5c0.3,3.3,1.1,6.4,2.7,9.4&#10;&#9;&#9;c0.9,1.5,1,1.6,2.2,0.4c2-1.8,4-3.7,6-5.5c1.4-1.3,1.5-1.3,0.7-3.2c-2.2-5.6-4.4-11.1-6.6-16.7c-0.3-0.7-0.6-1.5-0.9-2.2&#10;&#9;&#9;C295.4,508.4,295.2,508.2,295.1,508.1z" transform="matrix(1, 0, 0, 1, 0, 0)"/><path fill="#151D38" d="M680.8,615c0-31.4,0.1-62.7-0.1-94.1c-0.1-11.9,3.1-22.5,9.3-32.5c4.8-7.6,10.5-14.5,16.4-21.2&#10;&#9;&#9;c6.5-7.4,13.3-14.5,19.4-22.2c5.4-6.7,10.3-13.7,13.9-21.5c2.7-5.8,4.3-11.8,5-18.2c0-0.5,0-1,0.1-1.4c0.1-1-0.3-1.3-1.2-1.3&#10;&#9;&#9;c-1.5,0-3,0-4.6,0c-2.1,0-2.1,0-2.1-2.2c0-8,0-16,0-24c0-2,0-2,2-2.1c1.7,0,3.4,0,5,0c1.1,0,1.4-0.4,1.4-1.4c0-0.6,0-1.3,0-1.9&#10;&#9;&#9;c0-14.2,0-28.5,0-42.7c0-2.5-0.5-2.7,2.5-2.7c16.2,0,32.5,0,48.7,0c0.2,0,0.3,0,0.5,0c2.1,0,2.1,0,2.1,2.2c0,14.6,0,29.1,0,43.7&#10;&#9;&#9;c0,3.1-0.3,2.9,2.8,2.9c1,0,1.9,0,2.9,0c2.4,0,2.4,0,2.4,2.3c0,3.9,0,7.8,0,11.8c0,4.1,0,8.2,0,12.2c0,1.9,0,1.9-1.8,1.9&#10;&#9;&#9;c-1.5,0-3,0-4.6,0c-1,0-1.4,0.4-1.3,1.4c0.2,3.5,0.8,7,1.7,10.4c2.5,9.2,7.3,17.3,12.9,25c6.2,8.5,13.4,16.1,20.3,23.9&#10;&#9;&#9;c6.8,7.6,13.5,15.2,19,23.8c4.3,6.7,7.7,13.8,9.2,21.7c0.6,3,0.8,6,0.8,9.1c0,65.8-0.1,131.5,0,197.3c0,10.1-7,18.8-16.7,20.4&#10;&#9;&#9;c-1.3,0.2-2.5,0.3-3.8,0.3c-47.3,0-94.6,0-141.8,0c-5.5,0-10.4-1.8-14.3-5.7c-4.1-4-6.1-8.9-6.1-14.6c0-9.9,0-19.8,0-29.8&#10;&#9;&#9;C680.8,662.2,680.8,638.6,680.8,615z" transform="matrix(1, 0, 0, 1, 0, 0)"/><path fill="#FFE6C3" d="M683.8,615.4c0,5.2,0,10.4,0,15.6c0,28.2,0,56.3,0,84.5c0,8,4.9,14.5,12.3,16.7c2.1,0.6,4.2,0.7,6.4,0.7&#10;&#9;&#9;c12.9,0,25.8,0,38.6,0c33.4,0,66.7,0,100.1,0c2.3,0,4.6-0.1,6.9-0.7c7.5-2.2,12.4-8.7,12.4-16.7c0.1-9.1,0-18.2,0-27.4&#10;&#9;&#9;c0-3.1,0.3-2.8-2.9-2.8c-34.2,0-68.5,0-102.7,0c-1,0-1.9,0-2.9,0c-1.9,0-1.9,0-1.9-1.8c0-0.4,0-0.8,0-1.2c0-52.1,0-104.1,0-156.2&#10;&#9;&#9;c0-3.3-0.3-2.9,3-2.9c34.6,0,69.3,0,103.9,0c0.6,0,1.3,0,1.9,0c1.1,0.1,1.6-0.2,1.6-1.5c0-4.8-0.1-9.6-1.3-14.3&#10;&#9;&#9;c-1.9-7.8-5.6-14.8-10.1-21.3c-5.3-7.7-11.5-14.7-17.8-21.7c-6.9-7.7-13.9-15.3-20-23.6c-8-11-14.1-22.7-14.9-36.5&#10;&#9;&#9;c-0.1-1.7-0.2-1.7-1.9-1.7c-4.1,0-8.2,0-12.2,0c-10.7,0-21.4,0-32.2,0c-2.4,0-2.4-0.3-2.6,2.5c-0.3,4.5-1.2,8.9-2.6,13.1&#10;&#9;&#9;c-3,9.1-7.9,17.1-13.7,24.6c-6.2,8.2-13.2,15.7-20,23.3c-6.8,7.6-13.5,15.4-18.9,24.1c-5.8,9.3-8.8,19.3-8.8,30.4&#10;&#9;&#9;C684,552.2,683.8,583.8,683.8,615.4z" transform="matrix(1, 0, 0, 1, 0, 0)"/><path fill="#EDCFE4" d="M860.6,604.5c0-15.5,0-31,0-46.6c0-9.8,0-19.7,0-29.5c0-2.1,0-2.1-2.1-2.2c-0.3,0-0.6,0-1,0&#10;&#9;&#9;c-33.8,0-67.5,0-101.3,0c-3.6,0-3.1-0.1-3.1,3.1c0,50,0,100,0,150c0,3.5-0.3,3.1,3.1,3.1c31.3,0,62.5,0,93.8,0c2.9,0,5.8,0,8.6,0&#10;&#9;&#9;c1.9,0,1.9,0,1.9-1.8c0-0.6,0-1.1,0-1.7C860.6,654.1,860.6,629.3,860.6,604.5z" transform="matrix(1, 0, 0, 1, 0, 0)"/><path fill="#FFFFFF" d="M748.3,388.5c0,2.6,0,5.1,0,7.7c0,3.6-0.7,3.4,3.6,3.4c2,0,2,0,2-2c0-5.5,0-11,0-16.5&#10;&#9;&#9;c0-4.2,0.7-3.6-3.7-3.7c-1.9,0-1.9,0-1.9,1.8C748.3,382.2,748.3,385.4,748.3,388.5z" transform="matrix(1, 0, 0, 1, 0, 0)"/><path fill="#FFFFFF" d="M773.7,388.5c0,2.5,0,5,0,7.4c0.1,3.9-0.8,3.6,3.8,3.6c1.8,0,1.9-0.1,1.9-1.9c0-5.5,0.1-11,0-16.5&#10;&#9;&#9;c0-4.4,0.8-3.7-4-3.8c-1.2,0-1.7,0.4-1.7,1.6C773.7,382.1,773.7,385.3,773.7,388.5z" transform="matrix(1, 0, 0, 1, 0, 0)"/><path fill="#FFFFFF" d="M796.2,388.5c0-2.5,0-4.9,0-7.4c-0.1-4.4,0.7-3.8-3.8-3.8c-1.9,0-2,0-2,2c0,5.4,0,10.8,0,16.3&#10;&#9;&#9;c0,4.2,0,4.2,4.1,4c1.2-0.1,1.7-0.5,1.6-1.7C796.2,394.7,796.2,391.6,796.2,388.5z" transform="matrix(1, 0, 0, 1, 0, 0)"/><path fill="#FFFFFF" d="M770.7,388.4c0-2.7,0-5.4,0-8.1c0-3.3,0.3-3-2.9-3c-2.3,0-2.5-0.5-2.5,2.4c0,5.4,0,10.9,0,16.3&#10;&#9;&#9;c0,3.9-0.6,3.5,3.6,3.5c1.8,0,1.8-0.1,1.8-2C770.7,394.5,770.7,391.5,770.7,388.4z" transform="matrix(1, 0, 0, 1, 0, 0)"/><path fill="#FFFFFF" d="M745.4,388.4c0-2.6,0-5.1,0-7.7c-0.1-3.9,0.7-3.4-3.6-3.4c-1.7,0-1.7,0.1-1.7,1.8c0,5.7,0,11.3,0,17&#10;&#9;&#9;c0,3.8,0,3.7,3.9,3.5c1.1-0.1,1.5-0.5,1.5-1.6C745.3,394.8,745.4,391.6,745.4,388.4z" transform="matrix(1, 0, 0, 1, 0, 0)"/><path fill="#FFFFFF" d="M756.9,388.2c0,2.6,0,5.3,0,7.9c0.1,3.6-0.7,3.4,3.5,3.4c1.8,0,1.8-0.1,1.9-1.9c0-5.6,0-11.2,0-16.7&#10;&#9;&#9;c0-4.1,0.7-3.5-3.7-3.6c-1.2,0-1.7,0.4-1.7,1.6C756.9,382,756.9,385.1,756.9,388.2z" transform="matrix(1, 0, 0, 1, 0, 0)"/><path fill="#FFFFFF" d="M782.3,388.2c0,3.1,0,6.2,0,9.3c0,1.9,0,1.9,1.8,1.9c0.4,0,0.8,0,1.2,0c2.1,0,2.1,0,2.2-2.1&#10;&#9;&#9;c0-5.6,0-11.2,0-16.8c0-3.7,0.7-3.3-3.5-3.4c-1.2,0-1.7,0.4-1.7,1.6C782.4,382,782.3,385.1,782.3,388.2z" transform="matrix(1, 0, 0, 1, 0, 0)"/><path fill="#FFFFFF" d="M804.3,388.3c0-2.6,0-5.3,0-7.9c0-3.5,0.5-3.1-3.3-3.1c-1.8,0-1.8,0-1.8,1.9c0,5.8,0,11.5,0,17.3&#10;&#9;&#9;c0,3.1-0.6,3.1,3.2,3c0.2,0,0.3,0,0.5,0c1.2,0.1,1.5-0.5,1.5-1.6C804.3,394.7,804.3,391.5,804.3,388.3z" transform="matrix(1, 0, 0, 1, 0, 0)"/><path fill="#151D38" d="M575.9,302.1c23.1,0,46.2,0,69.3,0c3,0,2.9-0.4,2.9,2.8c0,5.9,0,11.8,0,17.8c0,2.2,0,2.2-2.3,2.2&#10;&#9;&#9;c-0.9,0-1.8,0-2.6,0c-1.9,0-1.9,0-2,1.8c-0.3,4.7-0.6,9.4-0.9,14.1c-0.9,14.3-1.9,28.6-2.8,42.8c-0.7,10.9-1.4,21.9-2.1,32.8&#10;&#9;&#9;c-0.9,13.4-1.8,26.8-2.7,40.2c-0.7,10.7-1.4,21.4-2.1,32.1c-0.7,11.2-1.5,22.3-2.2,33.5c-0.5,8.3-1.1,16.6-1.6,24.9&#10;&#9;&#9;c-0.4,6.4-0.8,12.8-1.3,19.1c-0.1,1.8-0.2,1.8-2,1.8c-7.5,0-15,0-22.6,0c-0.6,0-1.1,0-1.7,0c-1.1-0.1-1.7,0.3-1.8,1.6&#10;&#9;&#9;c-0.5,5.7-1.2,11.4-1.8,17.2c-0.9,8.4-1.8,16.9-2.7,25.3c-0.2,1.4-0.3,2.9-0.4,4.3c-0.1,1.1-0.5,1.5-1.7,1.5c-2.1-0.1-4.2,0-6.2,0&#10;&#9;&#9;c-7.8,0-15.5,0-23.3,0c-2.5,0-2.1-0.1-2.3-2c-0.9-8.4-1.8-16.8-2.7-25.3c-0.7-6.8-1.4-13.5-2.2-20.3c-0.2-2.2-0.3-2.2-2.5-2.2&#10;&#9;&#9;c-7.4,0-14.9,0-22.3,0c-0.6,0-1.3,0-1.9,0c-1,0-1.4-0.4-1.4-1.4c-0.2-4.4-0.6-8.8-0.9-13.2c-0.9-14.2-1.9-28.4-2.8-42.6&#10;&#9;&#9;c-0.7-10.9-1.4-21.9-2.1-32.8c-0.9-13.4-1.8-26.8-2.7-40.2c-0.7-10.7-1.4-21.4-2.1-32.1c-0.7-11.2-1.5-22.3-2.2-33.5&#10;&#9;&#9;c-0.5-8.2-1.1-16.4-1.6-24.6c-0.5-7-0.9-14-1.4-21.1c-0.1-1.7-0.1-1.7-1.8-1.7c-1.2,0-2.4-0.1-3.6,0c-1,0-1.5-0.3-1.4-1.4&#10;&#9;&#9;c0-1.4,0-2.9,0-4.3c0-5.1,0-10.2,0-15.4c0-1.7,0.1-1.7,1.8-1.7c1.7,0,3.4,0,5,0C532.1,302.1,554,302.1,575.9,302.1z" transform="matrix(1, 0, 0, 1, 0, 0)"/><path fill="#E894AF" d="M630.3,448.9C630.2,448.9,630.2,448.9,630.3,448.9c0.6-9.2,1.2-18.3,1.8-27.5c0.6-9.1,1.2-18.2,1.8-27.3&#10;&#9;&#9;c0.1-1,0.1-2.1,0.1-3.1c0-0.7-0.3-1-1-1c-0.4,0-0.8,0-1.2,0c-37.3,0-74.7,0-112,0c-2.4,0-2.4,0-2.2,2.4c0.9,13.2,1.8,26.3,2.6,39.5&#10;&#9;&#9;c0.7,11,1.4,22,2.1,33c0.9,13.8,1.8,27.6,2.8,41.4c0.1,2.1,0.1,2.1,2.2,2.1c0.4,0,0.8,0,1.2,0c31.6,0,63.2,0,94.8,0&#10;&#9;&#9;c0.5,0,1,0,1.4,0c1.6-0.1,1.6-0.1,1.8-1.8c0.3-5.1,0.7-10.2,1-15.3C628.3,477.1,629.3,463,630.3,448.9z" transform="matrix(1, 0, 0, 1, 0, 0)"/><path fill="#CCD6DA" d="M575.8,324.9c-19.8,0-39.5,0-59.3,0c-0.6,0-1.3,0-1.9,0c-1.1-0.1-1.6,0.3-1.4,1.5c0.2,2.2,0.3,4.5,0.4,6.7&#10;&#9;&#9;c1.1,16.9,2.2,33.8,3.4,50.7c0.2,3.7,0,3,3.3,3c37,0,74.1,0,111.1,0c0.5,0,1,0,1.4,0c1.3,0.1,1.6-0.5,1.7-1.7&#10;&#9;&#9;c0.1-2.6,0.3-5.3,0.5-7.9c0.7-11.4,1.5-22.8,2.2-34.2c0.4-5.5,0.7-11,1.1-16.5c0.1-1.6,0-1.6-1.5-1.7c-0.6,0-1.3,0-1.9,0&#10;&#9;&#9;C615.2,324.9,595.5,324.9,575.8,324.9z" transform="matrix(1, 0, 0, 1, 0, 0)"/><path fill="#CCD6DA" d="M575.8,511.4c-16,0-32,0-48,0c-2.4,0-2.4,0-2.3,2.3c0.3,4.9,0.6,9.7,0.9,14.6c0.7,10.7,1.4,21.4,2.1,32&#10;&#9;&#9;c0.1,0.9-0.2,2.1,0.5,2.4c0.8,0.4,1.5-0.7,2.2-1.2c12-8.4,25.2-13.1,39.8-13.9c18.2-1,34.8,3.7,49.7,14.3c0.5,0.4,1,1.1,1.6,0.9&#10;&#9;&#9;c0.8-0.3,0.5-1.2,0.5-1.9c0.5-6.8,0.9-13.5,1.3-20.3c0.6-9.2,1.2-18.3,1.7-27.5c0.1-1.6,0-1.6-1.5-1.7c-0.6,0-1.3,0-1.9,0&#10;&#9;&#9;C607,511.4,591.4,511.4,575.8,511.4z" transform="matrix(1, 0, 0, 1, 0, 0)"/><path fill="#CCD6DA" d="M575.9,305.1c-7.5,0-15,0-22.5,0c-14.9,0-29.7,0-44.6,0c-2.4,0-2.4,0-2.4,2.3c0,3.8,0,7.5,0,11.3&#10;&#9;&#9;c0,3.6-0.4,3.2,3.2,3.2c44.1,0,88.3,0,132.4,0c0.4,0,0.8,0,1.2,0c2,0,2,0,2-2c0-4.2,0-8.5,0-12.7c0-2.1,0-2.1-2.1-2.1&#10;&#9;&#9;c-0.5,0-1,0-1.4,0C619.7,305.1,597.8,305.1,575.9,305.1z" transform="matrix(1, 0, 0, 1, 0, 0)"/><path fill="#151D38" d="M575.7,568c-5,0-10.1,0-15.1,0c-4.4,0-3.7-0.4-3.3,3.7c0.6,7,1.5,14,2.2,21c0.7,6.7,1.4,13.3,2.1,20&#10;&#9;&#9;c0.2,2.1,0.3,2.1,2.3,2.1c7.8,0,15.7,0,23.5,0c0.3,0,0.6,0,1,0c0.9,0,1.3-0.4,1.4-1.2c0.1-1.5,0.3-3,0.5-4.5&#10;&#9;&#9;c1.4-12.9,2.7-25.9,4.1-38.8c0.2-2.1,0.3-2.2-1.9-2.2C586.9,568,581.3,568,575.7,568z" transform="matrix(1, 0, 0, 1, 0, 0)"/><path fill="#E894AF" d="M575.9,565c13.4,0,26.9,0,40.3,0c0.8,0,2.1,0.5,2.4-0.3c0.2-0.8-1.1-1.2-1.8-1.6&#10;&#9;&#9;c-21.4-13.6-44-16.1-67.8-7.4c-5.6,2-10.7,4.9-15.6,8.3c-0.2,0.2-0.6,0.5-0.6,0.6c0.1,0.6,0.6,0.4,1,0.4c0.6,0,1.1,0,1.7,0&#10;&#9;&#9;C548.9,565,562.4,565,575.9,565z" transform="matrix(1, 0, 0, 1, 0, 0)"/><path fill="#151D38" d="M417.8,611.6c0-23.5,0-47,0-70.6c0-2.4,0.1-4.8,0.5-7.2c0.9-5.4,3.7-9.8,7.4-13.7c2.6-2.6,5.2-5.2,7.7-7.9&#10;&#9;&#9;c3.3-3.6,5.3-7.7,6-12.6c0.1-0.6,0.1-1.1,0.2-1.7c0.1-0.9-0.3-1.4-1.2-1.3c-0.2,0-0.5,0-0.7,0c-1.2,0.2-1.5-0.4-1.5-1.5&#10;&#9;&#9;c0-3.8,0-7.7,0-11.5c0-4,0-8,0-12c0-1.8,0-1.8,1.9-1.8c1.4,0,2.7-0.1,4.1,0c1.2,0.1,1.9-0.3,1.7-1.6c-0.1-0.6,0-1.1,0-1.7&#10;&#9;&#9;c0-12,0-24,0-36c0-4.4,1.8-7.6,5.7-9.4c4.8-2.2,11.6-1,14.3,4.9c0.7,1.6,0.8,3.2,0.8,4.9c0,11.8,0,23.5,0,35.3c0,0.4,0,0.8,0,1.2&#10;&#9;&#9;c0,2.3,0,2.3,2.4,2.4c1.3,0,2.6,0.1,3.8,0c1.2-0.1,1.5,0.5,1.5,1.6c0,3.2,0,6.4,0,9.6c0,4.6,0,9.1,0,13.7c0,2,0,2-1.9,2&#10;&#9;&#9;c-0.3,0-0.6,0-1,0c-1,0-1.2,0.4-1.2,1.3c0.2,3.3,1.1,6.4,2.7,9.4c1.4,2.5,3.2,4.6,5.1,6.6c2,2,4.1,4.1,6.1,6.1&#10;&#9;&#9;c5.2,5.3,7.8,11.5,7.8,19c-0.1,49,0,97.9,0,146.9c0,3.5,0.4,3.1-3,3.1c-22.1,0-44.2,0-66.2,0c-0.6,0-1.1,0-1.7,0&#10;&#9;&#9;c-0.9,0.1-1.3-0.4-1.3-1.3c0-0.7,0-1.4,0-2.2C417.8,661,417.8,636.3,417.8,611.6z" transform="matrix(1, 0, 0, 1, 0, 0)"/><path fill="#A04C31" d="M420.8,610.7c0,24.3,0,48.6,0,72.9c0,2.9-0.1,2.6,2.6,2.6c18.8,0,37.6,0,56.4,0c1.4,0,2.9,0,4.3,0&#10;&#9;&#9;c3.1,0,2.9,0.3,2.9-2.8c0-0.3,0-0.6,0-1c0-11.2,0-22.4,0-33.6c0-1.4,0-2.9,0-4.3c0-1.9,0-1.8-1.8-2c-1.6-0.2-3.2-0.3-4.8-0.5&#10;&#9;&#9;c-17.1-2.8-30.6-15.8-34.3-33c-3.7-17.2,3.5-34.1,17.4-43.7c6.3-4.3,13.2-6.7,20.8-7.3c2.8-0.2,2.7,0.4,2.7-2.9&#10;&#9;&#9;c0-5.2-0.1-10.4,0-15.6c0.1-6.8-2.3-12.5-7.1-17.2c-1.8-1.7-3.5-3.5-5.3-5.3c-1.5-1.5-2.9-3-4.1-4.6c-3.1-4.1-4.9-8.8-5.3-13.9&#10;&#9;&#9;c-0.1-1.3-0.6-1.7-1.9-1.7c-6.3,0.1-12.6,0.1-19,0c-1.2,0-1.7,0.4-1.8,1.6c-0.4,7.4-3.9,13.2-9,18.3c-1.9,1.9-3.8,3.7-5.6,5.6&#10;&#9;&#9;c-2.9,3-5.2,6.3-6.3,10.3c-0.7,2.6-0.8,5.2-0.8,7.8C420.8,563.8,420.8,587.3,420.8,610.7z" transform="matrix(1, 0, 0, 1, 0, 0)"/><path fill="#151D38" d="M487,600.1c0-5.1,0-10.2,0-15.3c0-4,0-8,0-12c0-1.6-0.1-1.7-1.6-1.5c-1.1,0.1-2.2,0.2-3.3,0.4&#10;&#9;&#9;c-13,2.6-22.7,13.7-23.5,26.8c-0.7,12.1,6.4,24.3,19,29c2.4,0.9,4.9,1.5,7.5,1.7c1.9,0.1,1.9,0.1,1.9-1.7c0-0.5,0-1,0-1.4&#10;&#9;&#9;C487,617.4,487,608.8,487,600.1z" transform="matrix(1, 0, 0, 1, 0, 0)"/><path fill="#151D38" d="M448.2,600.2c0.1,1.3,0,2.6,0.2,3.8c0.2,1.8,0.5,3.6,0.9,5.4c4.1,16.9,18.7,29.1,36.1,30.1&#10;&#9;&#9;c1.5,0.1,1.5,0.1,1.6-1.5c0-1.1,0-2.2,0-3.4c0-2.3,0-2.3-2.4-2.5c-18.7-1.4-32.3-19.6-28.6-38.1c2.7-13.3,13.7-23.9,27.4-25.6&#10;&#9;&#9;c1.1-0.1,2.5,0.3,3.2-0.6c0.8-0.9,0.3-2.3,0.3-3.5c-0.1-3.7,0.9-3.7-3.6-3.3C463.5,563.2,448.2,580.2,448.2,600.2z" transform="matrix(1, 0, 0, 1, 0, 0)"/><path fill="#151D38" d="M446.8,449.2c0,6.3,0,12.6,0,18.9c0,1.7,0,1.7,1.7,1.8c3.7,0,7.4,0,11,0c2.1,0,2.1,0,2.1-2.1&#10;&#9;&#9;c0-0.2,0-0.5,0-0.7c0-11.8,0-23.7,0-35.5c0-0.6,0-1.3,0-1.9c-0.3-3.4-3-6.1-6.4-6.4c-5.1-0.5-8.4,2.6-8.5,7.7&#10;&#9;&#9;C446.8,437.1,446.8,443.1,446.8,449.2z" transform="matrix(1, 0, 0, 1, 0, 0)"/><path fill="#FFFFFF" d="M448.6,483.3c0-1.9,0-3.8,0-5.7c0-1.2,0-2.4,0-3.6c0-0.4-0.2-0.8-0.6-0.8c-0.5,0-0.6,0.5-0.6,0.9&#10;&#9;&#9;c0,0.2,0,0.5,0,0.7c0,5.8,0,11.6,0,17.5c0,0.4,0.1,0.8,0.1,1.2c0,0.3,0.3,0.4,0.5,0.4c0.2,0,0.5-0.1,0.5-0.4&#10;&#9;&#9;c0.1-0.5,0.1-0.9,0.1-1.4C448.6,489,448.6,486.2,448.6,483.3z" transform="matrix(1, 0, 0, 1, 0, 0)"/><path fill="#FFFFFF" d="M464.1,483.2c0,2.2,0,4.5,0,6.7c0,1,0,2.1,0,3.1c0,0.3,0,0.7,0.4,0.7c0.5,0.1,0.6-0.3,0.7-0.7&#10;&#9;&#9;c0-0.3,0-0.6,0-1c0-5.7,0-11.3,0-17c0-0.5-0.1-1-0.1-1.4c0-0.2-0.2-0.4-0.5-0.4c-0.3,0-0.5,0.2-0.5,0.4c-0.1,0.5-0.1,1-0.1,1.4&#10;&#9;&#9;C464.1,477.7,464.1,480.4,464.1,483.2z" transform="matrix(1, 0, 0, 1, 0, 0)"/><path fill="#FFFFFF" d="M439.1,483.3C439.1,483.3,439.1,483.3,439.1,483.3c0,2.8,0,5.6,0,8.4c0,0.6,0,1.1,0.1,1.7&#10;&#9;&#9;c0,0.3,0.3,0.4,0.5,0.4c0.2,0,0.5-0.1,0.5-0.4c0.1-0.6,0.1-1.3,0.1-1.9c0-4.2,0-8.5,0-12.7c0-1.5,0-3,0-4.5c0-0.4,0-0.9-0.5-1&#10;&#9;&#9;c-0.7-0.1-0.7,0.5-0.7,1C439.1,477.2,439.1,480.3,439.1,483.3z" transform="matrix(1, 0, 0, 1, 0, 0)"/><path fill="#FFFFFF" d="M452.8,483.3c0-2.6,0-5.3,0-7.9c0-0.6,0-1.1-0.1-1.7c0-0.3-0.2-0.6-0.6-0.5c-0.3,0-0.4,0.3-0.4,0.5&#10;&#9;&#9;c-0.1,0.5-0.1,1-0.1,1.4c0,5.6,0,11.2,0,16.8c0,0.5,0,1,0.1,1.4c0,0.3,0.2,0.4,0.5,0.4c0.2,0,0.5-0.1,0.5-0.4&#10;&#9;&#9;c0.1-0.6,0.1-1.1,0.1-1.7C452.8,488.9,452.8,486.1,452.8,483.3z" transform="matrix(1, 0, 0, 1, 0, 0)"/><path fill="#FFFFFF" d="M461.1,483.6C461.1,483.6,461.1,483.6,461.1,483.6c0-3.2,0-6.4,0-9.6c0-0.4-0.2-0.9-0.6-0.8&#10;&#9;&#9;c-0.3,0-0.4,0.4-0.4,0.8c0,0.9,0,1.8,0,2.6c0,5.3,0,10.7,0,16c0,0.4,0,1.1,0.7,1c0.5-0.1,0.4-0.6,0.4-1&#10;&#9;&#9;C461.1,489.6,461.1,486.6,461.1,483.6z" transform="matrix(1, 0, 0, 1, 0, 0)"/><path fill="#FFFFFF" d="M443.4,483.5c0,2.7,0,5.4,0,8.1c0,0.6,0,1.1,0.1,1.7c0,0.2,0.2,0.5,0.5,0.3c0.1,0,0.3-0.2,0.3-0.3&#10;&#9;&#9;c0.1-0.5,0.1-0.9,0.1-1.4c0-5.7,0-11.3,0-17c0-0.5,0-1-0.1-1.4c0-0.2-0.2-0.4-0.5-0.3c-0.1,0-0.3,0.2-0.3,0.3&#10;&#9;&#9;c-0.1,0.4-0.1,0.8-0.1,1.2C443.4,477.6,443.4,480.6,443.4,483.5z" transform="matrix(1, 0, 0, 1, 0, 0)"/><path fill="#FFFFFF" d="M455.8,483.3c0,2.9,0,5.9,0,8.8c0,0.5-0.3,1.5,0.6,1.5c0.9,0,0.5-1,0.5-1.5c0-5.8,0-11.6,0-17.4&#10;&#9;&#9;c0-0.4-0.1-0.8-0.1-1.2c0-0.1-0.2-0.2-0.3-0.3c-0.3-0.1-0.5,0.1-0.5,0.3c-0.1,0.5-0.1,1.1-0.1,1.7&#10;&#9;&#9;C455.8,477.9,455.8,480.6,455.8,483.3z" transform="matrix(1, 0, 0, 1, 0, 0)"/><path fill="#FFFFFF" d="M469.4,483.4c0-2.6,0-5.3,0-7.9c0-0.6,0-1.1,0-1.7c0-0.3-0.1-0.6-0.6-0.6c-0.3,0-0.4,0.3-0.4,0.5&#10;&#9;&#9;c0,0.4-0.1,0.8-0.1,1.2c0,5.7,0,11.3,0,17c0,0.5,0,1,0.1,1.4c0,0.2,0.2,0.5,0.5,0.4c0.1,0,0.3-0.2,0.3-0.3c0.1-0.5,0.1-0.9,0.1-1.4&#10;&#9;&#9;C469.4,489.1,469.4,486.2,469.4,483.4z" transform="matrix(1, 0, 0, 1, 0, 0)"/><path fill="#151D38" d="M921.6,587.2c0-25.8,0.1-51.5-0.1-77.3c-0.1-11.4,4-20.7,12.6-28.1c5.1-4.5,10.9-8.2,16.5-12&#10;&#9;&#9;c5.1-3.5,10.2-7.2,14.5-11.8c4.8-5.2,7.8-11.3,8.7-18.3c0-0.2,0-0.5,0.1-0.7c0.2-2.1,0.1-2.2-2-2.2c-1,0-1.9,0-2.9,0&#10;&#9;&#9;c-1,0.1-1.5-0.3-1.4-1.4c0.1-1.7,0-3.4,0-5c0-5,0-10.1,0-15.1c0-2,0-2,2-2c9.7,0,19.4,0,29,0c8.2,0,16.3,0,24.5,0&#10;&#9;&#9;c2.4,0,2.4,0,2.4,2.4c0,6.3,0,12.6,0,19c0,2.2,0,2.2-2.3,2.2c-0.7,0-1.4,0-2.2,0c-2.1,0-2.1,0.1-1.9,2.2&#10;&#9;&#9;c0.9,9.2,5.4,16.4,12.2,22.4c5.2,4.6,11,8.3,16.7,12.2c4.8,3.3,9.6,6.7,13.7,10.9c6.3,6.5,9.6,14.2,9.6,23.3c0,53.7,0,107.4,0,161&#10;&#9;&#9;c0,7.8-4.8,14.3-12.1,16.3c-1.8,0.5-3.6,0.7-5.5,0.7c-38.2,0-76.3,0-114.5,0c-10.2,0-17.2-6.8-17.6-17c0-0.7,0-1.4,0-2.2&#10;&#9;&#9;C921.6,640.2,921.6,613.7,921.6,587.2z" transform="matrix(1, 0, 0, 1, 0, 0)"/><path fill="#A3CEB5" d="M1068.2,587.9c0-26.9,0-53.7,0-80.6c0-6.7-2.1-12.7-6.3-18c-1.9-2.3-4-4.4-6.2-6.3&#10;&#9;&#9;c-4.2-3.5-8.7-6.5-13.2-9.5c-5.6-3.8-11.2-7.7-16-12.6c-6.1-6.3-9.7-13.6-10.4-22.4c-0.1-1.7-0.2-1.8-2-1.8c-11.8,0-23.5,0-35.3,0&#10;&#9;&#9;c-1.8,0-1.9,0-2,1.9c-0.7,9.4-4.9,17.1-11.5,23.5c-4.3,4.2-9.3,7.6-14.2,11c-4.9,3.3-9.9,6.5-14.3,10.4c-3.1,2.7-5.8,5.7-8,9.2&#10;&#9;&#9;c-3.1,5.1-4.1,10.7-4.1,16.5c0,52.6,0,105.2,0,157.9c0,1,0.1,2.1,0.2,3.1c0.3,3.3,1.7,6.1,4,8.5c2.8,2.7,6.1,3.9,10,3.9&#10;&#9;&#9;c38.5,0,76.9,0,115.4,0c0.7,0,1.4,0,2.1-0.2c5.1-0.7,8.6-3.5,10.8-8.2c0.9-1.9,1.1-4,1.1-6.1&#10;&#9;&#9;C1068.2,641.5,1068.2,614.7,1068.2,587.9z" transform="matrix(1, 0, 0, 1, 0, 0)"/><path fill="#FFFFFF" d="M1001.9,425C1001.9,425,1001.9,425,1001.9,425c0-2.4,0-4.8,0-7.2c0-1.5-0.2-1.5-2-1.5c-1.8,0-1.9,0.1-2,1.6&#10;&#9;&#9;c0,1.9,0,3.8,0,5.7c0,2.8,0,5.6,0,8.4c0,1.8,0,1.8,1.9,1.8c0.2,0,0.3,0,0.5,0c1.3,0.2,1.6-0.5,1.6-1.7&#10;&#9;&#9;C1001.9,429.8,1001.9,427.4,1001.9,425z" transform="matrix(1, 0, 0, 1, 0, 0)"/><path fill="#FFFFFF" d="M981.3,425.2c0-2.4,0-4.8,0-7.2c0-0.5,0.1-1.3-0.5-1.5c-1-0.4-2.1-0.4-3,0c-0.8,0.4-0.5,1.3-0.5,1.9&#10;&#9;&#9;c0,4.4,0,8.8,0,13.1c0,2.3,0,2.3,2.2,2.2c1.7,0,1.7,0,1.8-1.7C981.3,429.8,981.3,427.5,981.3,425.2z" transform="matrix(1, 0, 0, 1, 0, 0)"/><path fill="#FFFFFF" d="M1011.7,425c0,2.5,0,5,0,7.4c0,1,0.4,1.5,1.4,1.4c0.2,0,0.5,0,0.7,0c2,0,2,0,2-1.9c0-4.5,0-9,0-13.4&#10;&#9;&#9;c0-2.2-0.2-2.2-2.6-2.2c-1.1,0-1.6,0.3-1.6,1.5C1011.7,420.2,1011.7,422.6,1011.7,425z" transform="matrix(1, 0, 0, 1, 0, 0)"/><path fill="#FFFFFF" d="M988.2,425.2c0-2.5,0-4.9,0-7.4c0-1.4-0.3-1.5-2.1-1.5c-1.1,0-1.8,0.1-1.8,1.5c0.1,4.9,0.1,9.7,0,14.6&#10;&#9;&#9;c0,1.5,0.8,1.5,1.8,1.5c1.9,0,2,0,2-1.5C988.2,430,988.2,427.6,988.2,425.2z" transform="matrix(1, 0, 0, 1, 0, 0)"/><path fill="#FFFFFF" d="M995,425.1c0-2.4,0-4.8,0-7.2c0-1.5-0.2-1.6-1.9-1.6c-1.7,0-1.9,0.1-1.9,1.6c0,4.8,0,9.6,0,14.3&#10;&#9;&#9;c0,1.6,0.1,1.6,1.9,1.6c1.8,0,1.9,0,1.9-1.6C995,429.9,995,427.5,995,425.1z" transform="matrix(1, 0, 0, 1, 0, 0)"/><path fill="#FFFFFF" d="M970.5,425c0,2.5,0.1,4.9,0,7.4c-0.1,1.4,0.7,1.5,1.8,1.5c1.9,0,2,0,2-1.4c0-4.9,0-9.7,0-14.6&#10;&#9;&#9;c0-1.4-0.7-1.5-1.8-1.5c-1.8,0-2,0.1-2,1.5C970.4,420.2,970.5,422.6,970.5,425z" transform="matrix(1, 0, 0, 1, 0, 0)"/><path fill="#FFFFFF" d="M1005,425c0,2.5,0.1,5,0,7.4c-0.1,1.5,0.8,1.4,1.8,1.4c1,0,1.9,0,1.9-1.4c-0.1-4.9,0-9.8,0-14.6&#10;&#9;&#9;c0-1.4-0.8-1.5-1.9-1.5c-1,0-1.9,0-1.8,1.5C1005,420.2,1005,422.6,1005,425z" transform="matrix(1, 0, 0, 1, 0, 0)"/><path fill="#FFFFFF" d="M1018.9,425.2c0,2.4,0,4.8,0,7.2c0,1.2,0.5,1.5,1.6,1.5c0.9-0.1,2,0.3,2-1.3c0-5,0-9.9,0-14.9&#10;&#9;&#9;c0-1.5-1-1.3-1.9-1.4c-1-0.1-1.6,0.2-1.6,1.4C1018.9,420.2,1018.9,422.7,1018.9,425.2z" transform="matrix(1, 0, 0, 1, 0, 0)"/><path fill="#151D38" d="M408.1,382.3c0.4-0.5,0.2-1-0.1-1.6c-3.9-7.1-8.3-14-13.1-20.6c-0.7-0.9-1.3-0.8-2.3-0.7&#10;&#9;&#9;c-3.4,0.3-6.1-1.8-6.4-5c-0.2-2.4,0.7-4.3,2.8-5.4c2.1-1.2,4.2-1.1,6.1,0.3c2,1.4,3,3.5,2.1,5.7c-1,2.4,0.1,3.7,1.3,5.3&#10;&#9;&#9;c6.9,9.7,12.9,20,18,30.8c0.1,0.2,0.2,0.4,0.3,0.6c0.3,0.5,0.5,1.4,0.9,1.2c0.5-0.2,0-1-0.1-1.5c-2.1-9.3-4.3-18.5-6.4-27.8&#10;&#9;&#9;c-0.3-1.3-0.7-2-2.2-2.4c-2.3-0.6-3.5-2.4-3.7-4.8c-0.2-2.4,0.8-4.3,2.9-5.4c2.1-1.1,4.2-1,6.1,0.4c2.7,2,3.1,6,0.6,8.4&#10;&#9;&#9;c-1,1-1.2,1.8-0.9,3.1c3,12.8,6,25.7,9,38.5c0.1,0.3,0.1,0.6,0.2,0.9c0.1,0.2,0.2,0.5,0.4,0.6c0.5,0.1,0.5-0.4,0.5-0.7&#10;&#9;&#9;c0.1-1.8,0.2-3.7,0.4-5.5c0.6-5.8,1.8-11.5,3.6-17.1c0.3-1.1,0.1-1.7-0.5-2.6c-1.6-2-1.6-5-0.1-6.9c1.6-2,4.3-2.8,6.7-1.8&#10;&#9;&#9;c2.3,0.9,3.6,3.2,3.4,5.8c-0.2,2.5-2,4.6-4.8,4.9c-1.3,0.2-1.7,0.7-2.1,1.8c-3.8,12.3-4.8,24.9-3,37.7c0.4,2.8,1,5.5,1.5,8.2&#10;&#9;&#9;c0.3,1.4-0.8,2.4-2.2,2.1c-0.6-0.1-0.6-0.7-0.8-1.1c-0.7-2.1-1.4-4.3-2.2-6.3c-1.8-4.6-4-9.1-7.8-12.5c-2-1.9-4.4-3.2-7.2-3.6&#10;&#9;&#9;c-2.2-0.3-2.2-0.3-2.9,1.9c-0.7,2.2-2.6,3.8-4.9,4c-2.3,0.2-4.5-1-5.5-3.1c-1-2.1-0.7-4.6,0.8-6.3c2-2.3,5.2-2.6,7.8-0.7&#10;&#9;&#9;c0.8,0.6,1.4,1.2,2.5,1.1c4.8-0.2,8.7,1.7,12,5c0.4,0.4,0.9,1.3,1.4,1c0.5-0.3-0.1-1.1-0.4-1.7c-3-5.9-7-10.9-12.7-14.4&#10;&#9;&#9;c-0.7-0.5-1.6-0.8-2.3-1.2c-1.1-0.6-1.8-0.5-2.6,0.6c-1.1,1.5-2.7,2.2-4.6,2.2c-2.7-0.1-4.9-2-5.4-4.6c-0.5-2.9,1-5.4,3.6-6.3&#10;&#9;&#9;c2.6-0.9,5.6,0,6.8,2.5c0.7,1.6,1.8,2.4,3.4,3c1.7,0.6,3.1,1.6,4.6,2.6c0.2,0.2,0.5,0.5,0.8,0.3c0.3-0.3-0.1-0.6-0.2-0.8&#10;&#9;&#9;c-2-2.7-4.2-5.3-6.5-7.6c-4.6-4.6-9.8-8.4-15.7-11.3c-1.5-0.7-2.5-1-4,0.3c-2.5,2.1-6.4,1.2-8.1-1.7c-1.7-2.9-0.6-6.6,2.4-7.9&#10;&#9;&#9;c3.3-1.5,7.1,0.2,7.9,3.8c0.3,1.3,0.8,1.9,2,2.4c6.6,3,12.4,7.2,17.6,12.3C407.4,381.1,407.9,381.6,408.1,382.3&#10;&#9;&#9;c0-0.1,0.2-0.1,0.1,0C408.1,382.5,408.4,382.2,408.1,382.3z" transform="matrix(1, 0, 0, 1, 0, 0)"/><path fill="#151D38" d="M973.7,787c0.1,5.9-1.4,11.2-5.4,15.7c-3.5,3.9-8,6.2-13.1,6.8c-14.1,1.7-26.5-2.3-37-12.1&#10;&#9;&#9;c-1-0.9-1.8-2-2.5-3.2c-2.8-4.6-3-9.1,0.1-13.7c2.7-4,6.2-6.9,10.5-8.8c0.4-0.2,1.1-0.4,1.2-0.7c0.1-0.5-0.5-0.7-0.9-0.9&#10;&#9;&#9;c-6.2-3.6-12.5-6.8-19.6-8.2c-1.3-0.3-2.5-0.4-3.8-0.3c-1.4,0-1.2-0.9-1.3-1.8c-0.1-1.1,0.6-1.2,1.4-1.1c4.5,0.1,8.7,1.3,12.8,2.9&#10;&#9;&#9;c4.2,1.6,8.1,3.7,12,6c2.3,1.3,2.2,1.3,2.7-1.1c0.5-2.8,1.3-5.6,2.7-8.2c3.5-6.9,10.4-9.7,17.8-7.2c3.8,1.3,7,3.5,9.8,6.4&#10;&#9;&#9;c7.2,7.3,11.5,16.1,12.8,26.2C973.8,784.8,973.7,785.9,973.7,787z" transform="matrix(1, 0, 0, 1, 0, 0)"/><path fill="#23984B" d="M958.1,759.5c0.1-0.7-0.3-1-0.7-1.4c-2-1.7-4.2-3.2-6.7-4.2c-1.1-0.5-1.6-0.2-1.9,0.9&#10;&#9;&#9;c-0.7,2.5-1.4,4.9-2.1,7.4c-1.3,4.5-2.5,8.9-3.9,13.3c-0.4,1.2-0.1,1.9,0.9,2.6c1.3,0.9,2.5,1.9,3.8,2.9c1.4,1,1.5,1,2.1-0.6&#10;&#9;&#9;c2.7-6.7,5.4-13.4,8-20C957.9,760.1,958,759.8,958.1,759.5z" transform="matrix(1, 0, 0, 1, 0, 0)"/><path fill="#23984B" d="M946.8,784.5c-0.1-0.2-0.3-0.4-0.4-0.5c-1.6-1.3-3.3-2.5-4.9-3.8c-0.6-0.5-1.2-0.4-1.8,0&#10;&#9;&#9;c-1.2,0.7-2.3,1.4-3.5,2.1c-5.4,3.2-10.9,6.4-16.3,9.7c-1.6,1-1.6,1.1-0.4,2.5c1.3,1.5,2.7,2.9,4.3,4.1c1.5,1.1,1.5,1.1,3.1,0.1&#10;&#9;&#9;c4.9-3.4,9.9-6.8,14.8-10.2c1.4-1,2.9-2,4.3-3C946.3,785.2,946.7,785,946.8,784.5z" transform="matrix(1, 0, 0, 1, 0, 0)"/><path fill="#23984B" d="M955.7,792.1c0-0.5-0.3-0.7-0.6-1c-1.1-0.9-2.2-1.9-3.3-2.8c-2.6-2.1-1.9-2-4.4-0.3&#10;&#9;&#9;c-5.5,3.8-11,7.6-16.5,11.4c-0.6,0.4-1.2,0.8-1.8,1.2c-0.7,0.5-0.6,0.9,0.1,1.2c1.8,0.8,3.7,1.6,5.5,2.4c1.4,0.6,2.5,0.5,3.7-0.4&#10;&#9;&#9;c2.8-2,5.8-3.9,8.7-5.9c2.5-1.7,5-3.4,7.6-5C955,792.8,955.5,792.5,955.7,792.1z" transform="matrix(1, 0, 0, 1, 0, 0)"/><path fill="#23984B" d="M957.7,789.4c0.4-0.3,0.6-0.6,0.7-1c2.4-6,4.8-12,7.1-18c0.3-0.8,0.2-1.5-0.2-2.3c-1.1-1.9-2.4-3.8-3.8-5.5&#10;&#9;&#9;c-0.9-1.1-1.1-1-1.6,0.2c-2.7,6.7-5.4,13.5-8.1,20.2c-0.3,0.8-0.3,1.5,0.4,2.1c1.6,1.2,3.1,2.6,4.6,3.8&#10;&#9;&#9;C957.2,789,957.5,789.2,957.7,789.4z" transform="matrix(1, 0, 0, 1, 0, 0)"/><path fill="#23984B" d="M949.1,807.1c2.6,0,5-0.2,7.3-0.8c3.1-0.8,6-2.1,8.4-4.3c0.6-0.6,1.1-1.1,0.2-1.9c-1.9-1.7-3.8-3.4-5.7-5.2&#10;&#9;&#9;c-0.7-0.7-1.3-0.7-2.1-0.1c-0.8,0.6-1.6,1.1-2.4,1.6c-4.3,2.9-8.6,5.8-13,8.6c-0.3,0.2-0.8,0.4-0.7,0.8c0.1,0.5,0.6,0.4,1,0.5&#10;&#9;&#9;C944.5,806.9,946.9,807,949.1,807.1z" transform="matrix(1, 0, 0, 1, 0, 0)"/><path fill="#23984B" d="M933.2,769.7c-0.3,0.7,0.2,1.2,0.9,1.7c1.6,1.1,3.2,2.1,4.7,3.2c1,0.7,1.3,0.3,1.6-0.7&#10;&#9;&#9;c1.8-6.4,3.7-12.8,5.6-19.3c0.4-1.4,0-1.7-1.4-1.5c-3.2,0.6-5.8,2.1-7.6,4.9C934.6,761.6,933.7,765.5,933.2,769.7z" transform="matrix(1, 0, 0, 1, 0, 0)"/><path fill="#23984B" d="M916.4,787.5c0,0.3,0.1,0.8,0.1,1.2c0.3,1.4,0.4,1.5,1.7,0.7c1.9-1.1,3.9-2.3,5.8-3.4&#10;&#9;&#9;c4.3-2.5,8.5-5.1,12.8-7.6c0.8-0.5,1.1-0.9,0.2-1.5c-1.6-1.1-3.2-2.2-4.7-3.2c-0.6-0.4-1.1-0.5-1.8-0.3c-5.8,1.7-10.3,5-13.1,10.4&#10;&#9;&#9;C916.7,784.9,916.4,786.1,916.4,787.5z" transform="matrix(1, 0, 0, 1, 0, 0)"/><path fill="#23984B" d="M970.9,786.6c-0.1-4.1-1-8.3-2.6-12.4c-0.1-0.3-0.3-0.5-0.5-0.8c-0.2,0.2-0.5,0.4-0.6,0.7&#10;&#9;&#9;c-2.2,5.5-4.3,11-6.5,16.4c-0.3,0.8-0.2,1.3,0.4,1.9c1.8,1.6,3.6,3.3,5.5,5c1.1,1,1.3,1,2-0.5C970.3,793.8,970.9,790.4,970.9,786.6&#10;&#9;&#9;z" transform="matrix(1, 0, 0, 1, 0, 0)"/><path fill="#151D38" d="M834.2,788c0.2-3.2,1.9-6.9,5.2-9.8c2-1.7,4.3-3.1,6.2-5c1-1,1.9-1.9,2.9-2.9c1.4-1.3,2.5-1.1,3,0.7&#10;&#9;&#9;c0.9,3.8,2.5,7.2,4,10.8c1.6,3.8,1.6,7.6,0.1,11.4c-2,5-6.8,7.5-12.3,6.4C837.7,798.6,834.2,794.5,834.2,788z M853.6,787.7&#10;&#9;&#9;c-0.2-1-0.1-2.3-0.5-3.6c-1.1-3.1-2.8-5.9-3.6-9.1c-0.2-0.6-0.6-0.7-1.1-0.3c-2.4,2.4-5.4,4-7.8,6.4c-2.5,2.5-3.9,5.7-3.4,9.3&#10;&#9;&#9;c0.6,3.8,4.2,6.5,8.3,6.6c3.9,0,7-2.7,7.8-6.8C853.5,789.5,853.5,788.7,853.6,787.7z" transform="matrix(1, 0, 0, 1, 0, 0)"/><path fill="#151D38" d="M636.3,670.2c-4.2-0.3-8.2-2.8-10.9-7.3c-1.9-3.2-3.6-6.6-6.1-9.4c-0.1-0.1-0.1-0.1-0.1-0.2&#10;&#9;&#9;c-0.9-1.5-0.6-2.4,1.2-2.7c1.1-0.2,2.2-0.3,3.3-0.4c3.4-0.4,6.4-1.9,9.8-2.3c3.8-0.5,7.3,0.3,10.5,2.5c3.9,2.8,5.3,7.4,3.8,12.1&#10;&#9;&#9;C646.1,667.3,642.2,670.2,636.3,670.2z M637,667.3c4,0,6.3-1.9,7.6-5c1.4-3.2,0.9-6.3-1.3-8.6c-2.4-2.5-5.5-3.3-8.8-3&#10;&#9;&#9;c-3.6,0.3-6.9,1.9-10.5,2.4c-0.6,0.1-0.8,0.5-0.4,1c2,2.6,3.2,5.7,5.1,8.4C630.9,665.3,633.7,667.1,637,667.3z" transform="matrix(1, 0, 0, 1, 0, 0)"/><path fill="#151D38" d="M607.6,692.6c-0.1,4.3-1.6,7.9-5.6,9.9c-4.1,2.1-8.2,1.8-12.1-0.6c-3.6-2.3-5.3-7-4.2-11.9&#10;&#9;&#9;c0.5-2.6,1.6-5,3.4-7c2.5-2.8,5-5.6,6.9-8.9c1-1.6,2.2-1.6,3,0.1c1.6,3.5,3.8,6.6,6,9.8C606.8,686.6,607.6,689.5,607.6,692.6z&#10;&#9;&#9; M596.7,700.9c4,0,6.9-2.3,7.7-6.2c0.7-3.2,0-6.2-1.8-8.9c-1.5-2.4-3.4-4.6-4.7-7.2c-0.3-0.6-0.7-0.9-1.2-0.1&#10;&#9;&#9;c-1.6,2.5-3.8,4.5-5.7,6.8c-1.5,1.8-2.4,4-2.7,6.3C587.7,697,591.3,700.9,596.7,700.9z" transform="matrix(1, 0, 0, 1, 0, 0)"/><path fill="#151D38" d="M741,245.8c0,1.5-1.1,4-3,6.1c-2.5,2.9-5.7,4.6-9.5,5.2c-3.2,0.5-6.2,1.4-9.2,2.5c-2.4,0.9-3.2,0.2-2.7-2.3&#10;&#9;&#9;c0.7-3.3,0.9-6.6,0.9-10c0-3.9,1.4-7.4,4-10.3c3.1-3.5,7.7-4.7,12-3C738,235.7,741,240,741,245.8z M738.1,245&#10;&#9;&#9;c0.2-3.4-2.2-6.8-5.4-8.2c-3-1.3-6.3-0.6-8.7,1.9c-2.4,2.5-3.4,5.6-3.5,8.9c-0.1,2.4,0.1,4.8-0.4,7.2c-0.2,0.9,0.2,1.2,1,0.9&#10;&#9;&#9;c2.7-0.9,5.6-1.3,8.4-2c0.6-0.1,1.2-0.3,1.8-0.6C734.9,251.5,737.6,248.9,738.1,245z" transform="matrix(1, 0, 0, 1, 0, 0)"/><path fill="#151D38" d="M543.6,656c1.4-0.1,2.7,0.1,4,0.5c3.3,1,6.7,1.5,10.1,1.9c2.2,0.2,2.7,1.2,1.3,3c-2.1,2.8-3.8,5.9-5.4,9&#10;&#9;&#9;c-2,3.9-5.1,6.5-9.3,7.8c-5.4,1.6-10.7-1-13-6.3c-2.3-5.4-0.6-11,4.4-13.9C538.2,656.6,540.8,655.9,543.6,656z M541.4,675.7&#10;&#9;&#9;c3,0,6.9-2.2,8.8-5.3c1.7-2.7,2.9-5.7,4.7-8.3c0.4-0.6,0.2-1.1-0.6-1.1c-3-0.3-5.8-1.3-8.7-1.8c-2.7-0.5-5.3-0.1-7.7,1.1&#10;&#9;&#9;c-2.9,1.4-4.7,3.7-4.7,7c0.1,3.4,1.6,6.2,4.7,7.8C539,675.5,540.1,675.8,541.4,675.7z" transform="matrix(1, 0, 0, 1, 0, 0)"/><path fill="#151D38" d="M693.5,250.3c0.1,1.3-0.2,2.8-0.6,4.1c-1.3,4.3-4,7.2-8.4,7.9c-4.7,0.7-8.7-0.7-11.5-4.7&#10;&#9;&#9;c-1.6-2.2-2.1-4.8-1.6-7.5c0.7-4,2.5-7.4,5.8-9.9c2.9-2.2,5.8-4.5,8.3-7.2c1.4-1.5,2.5-1.2,3,0.8c0.9,3.5,2.2,6.8,3.7,10.1&#10;&#9;&#9;C693.1,245.9,693.5,248,693.5,250.3z M690.6,250.3c0.1-1.2-0.2-2.4-0.6-3.5c-1.1-3.1-2.7-5.9-3.6-9.1c-0.3-0.9-0.8-0.6-1.2-0.2&#10;&#9;&#9;c-2.1,2.2-4.8,3.8-7.1,5.7c-2.1,1.8-3.3,4.1-3.8,6.7c-0.9,4.6,1.4,8.1,6,9.3c4.3,1.1,8.2-0.9,9.6-5.2&#10;&#9;&#9;C690.4,252.8,690.6,251.5,690.6,250.3z" transform="matrix(1, 0, 0, 1, 0, 0)"/><path fill="#151D38" d="M552.2,702.1c2.3-0.1,4.5,0.4,6.5,1.3c3.3,1.6,6.7,3,10.3,4c1.8,0.5,2.1,1.6,0.7,2.9&#10;&#9;&#9;c-2.9,2.6-5.2,5.6-7.7,8.6c-2.6,3.2-6.1,5.1-10.3,5.4c-5.9,0.4-10.3-3.2-11.4-9.3c-1-5.6,2.1-10.6,7.5-12.3&#10;&#9;&#9;C549.2,702.3,550.7,702.1,552.2,702.1z M552.4,705c-1.9,0-3.4,0.3-4.8,0.9c-3.6,1.6-5.3,5.1-4.4,9.1c0.9,4,3.9,6.6,7.8,6.4&#10;&#9;&#9;c3.6-0.1,6.6-1.8,8.9-4.5c1.7-2.1,3.3-4.4,5.2-6.2c0.8-0.8,0.4-1.1-0.5-1.4c-2.3-0.7-4.4-1.8-6.6-2.8&#10;&#9;&#9;C556.3,705.6,554.4,704.9,552.4,705z" transform="matrix(1, 0, 0, 1, 0, 0)"/><path fill="#151D38" d="M623.2,760.3c-7.8-0.1-12.8-6.7-10.8-14.2c0.8-3.1,2.4-5.8,5-7.7c3.1-2.4,6.2-4.8,8.9-7.7&#10;&#9;&#9;c1.3-1.3,2.4-1,2.9,0.9c0.9,3.5,2.2,6.8,3.7,10.1c1.7,3.7,1.8,7.6,0.5,11.4C631.9,757.6,627.9,760.3,623.2,760.3z M631.4,747.8&#10;&#9;&#9;c-0.1-1.6-0.3-3.1-0.9-4.5c-1.1-2.6-2.4-5.1-3.2-7.8c-0.2-0.8-0.7-1-1.3-0.4c-2,2-4.3,3.5-6.5,5.3c-2.4,1.9-3.7,4.3-4.4,7.2&#10;&#9;&#9;c-0.9,4,1.2,7.7,5.2,9.1c4.1,1.5,8.1,0,10-3.7C631.1,751.4,631.2,749.6,631.4,747.8z" transform="matrix(1, 0, 0, 1, 0, 0)"/><path fill="#151D38" d="M575.7,457.6c9.5,0,19,0,28.6,0c0.6,0,1.3,0,1.9,0c0.8,0,1.2,0.3,1.2,1.1c0,3.6,0,7.2,0,10.8&#10;&#9;&#9;c0,0.7-0.3,1-1,1c-0.6,0-1.1,0-1.7,0c-19.2,0-38.4,0-57.6,0c-3.2,0-2.9,0.2-2.9-2.8c0-2.8,0-5.6,0-8.4c0-1.7,0.1-1.7,1.8-1.7&#10;&#9;&#9;c5.8,0,11.5,0,17.3,0C567.4,457.6,571.5,457.6,575.7,457.6z M575.9,467.5c8.1,0,16.2,0,24.2,0c1.3,0,3,0.6,3.9-0.4&#10;&#9;&#9;c0.8-0.9,0.3-2.5,0.3-3.7c0-3,0.3-2.8-2.6-2.8c-17.3,0-34.5,0-51.8,0c-0.5,0-1,0-1.4,0c-0.9,0-1.3,0.3-1.3,1.2c0,1.4,0,2.9,0,4.3&#10;&#9;&#9;c0,0.9,0.3,1.4,1.2,1.3c0.6,0,1.1,0,1.7,0C558.7,467.5,567.3,467.5,575.9,467.5z" transform="matrix(1, 0, 0, 1, 0, 0)"/><path fill="#151D38" d="M575.4,437.1c-8.9,0-17.9,0-26.8,0c-0.6,0-1.1,0-1.7,0c-1.1,0.1-1.3-0.5-1.3-1.5c0-0.9,0.1-1.6,1.2-1.6&#10;&#9;&#9;c0.6,0,1.1,0,1.7,0c18.2,0,36.4,0,54.7,0c0.2,0,0.5,0,0.7,0c1.9,0,2,0.1,2,1.5c0,1.4-0.1,1.5-2,1.5c-6.9,0-13.7,0-20.6,0&#10;&#9;&#9;C580.7,437.1,578.1,437.1,575.4,437.1z" transform="matrix(1, 0, 0, 1, 0, 0)"/><path fill="#151D38" d="M575.9,423.4c8.9,0,17.9,0,26.8,0c0.6,0,1.1,0.1,1.7,0c1.2-0.1,1.5,0.6,1.5,1.6c0,1-0.3,1.5-1.4,1.5&#10;&#9;&#9;c-0.5,0-1,0-1.4,0c-18.2,0-36.4,0-54.7,0c-0.4,0-0.8,0-1.2,0c-1.5-0.1-2-0.8-1.6-2.3c0.1-0.4,0.4-0.7,0.8-0.7c0.6,0,1.3,0,1.9,0&#10;&#9;&#9;C557.6,423.4,566.7,423.4,575.9,423.4z" transform="matrix(1, 0, 0, 1, 0, 0)"/><path fill="#151D38" d="M575.7,447.8c-9,0-17.9,0-26.9,0c-0.6,0-1.1,0-1.7,0c-1.1,0.1-1.6-0.3-1.6-1.5c0-1.2,0.4-1.6,1.5-1.5&#10;&#9;&#9;c0.1,0,0.2,0,0.2,0c18.9,0,37.9,0,56.8,0c1.6,0,1.7,0.2,1.7,1.8c0,0.8-0.4,1.2-1.2,1.1c-0.6,0-1.1,0-1.7,0&#10;&#9;&#9;C593.9,447.8,584.8,447.8,575.7,447.8z" transform="matrix(1, 0, 0, 1, 0, 0)"/><path fill="#151D38" d="M996.5,522.9c27.9,0,50.5,22.5,50.5,50.4c0,29.6-24.4,51-51.3,50.7c-27.4-0.4-49.8-22.9-49.8-50.7&#10;&#9;&#9;C945.9,545.3,968.5,522.9,996.5,522.9z M996.4,525.9c-24.6-0.3-47.4,19.8-47.5,47.4c-0.1,26,21.3,47.5,47.1,47.7&#10;&#9;&#9;c26.6,0.1,48-21.4,48-47.5C1044,546.4,1021.6,525.6,996.4,525.9z" transform="matrix(1, 0, 0, 1, 0, 0)"/><path fill="#151D38" d="M985.3,580.7c-0.9,0-1.8,0.3-1.9-1c-0.1-1.5,0-1.9,1.5-2c4.1-0.4,7.4-2.3,10.3-5.1c1.4-1.3,2.8-2.6,4.3-3.8&#10;&#9;&#9;c1.5-1.2,3.2-2.1,5.2-2.4c0.7-0.1,1.6-0.3,1.6,0.8c0,0.8,0.5,1.8-0.9,2.1c-2.8,0.5-4.7,2.3-6.6,4.1c-1.6,1.5-3.2,2.9-4.9,4.2&#10;&#9;&#9;C991.3,579.4,988.3,580.3,985.3,580.7z" transform="matrix(1, 0, 0, 1, 0, 0)"/><path fill="#151D38" d="M1002.5,580.7c-1,0-1.7,0.1-1.7-1c0-1.4,0-1.9,1.3-2c4.8-0.3,8.4-2.8,11.7-6c1.2-1.1,2.4-2.1,3.6-3.1&#10;&#9;&#9;c1.3-1.1,2.9-1.8,4.5-2.1c0.7-0.1,1.6-0.6,1.9,0.7c0.3,1.3,0,1.9-1.3,2.3c-1.8,0.5-3.3,1.5-4.7,2.7c-1.9,1.6-3.6,3.4-5.6,4.9&#10;&#9;&#9;C1009.3,579.2,1006,580.4,1002.5,580.7z" transform="matrix(1, 0, 0, 1, 0, 0)"/><path fill="#151D38" d="M967.3,580.7c-0.6,0.1-1.3,0-1.3-1.1c0-0.8-0.3-1.8,1.1-1.9c5.1-0.3,8.9-3.2,12.3-6.6&#10;&#9;&#9;c1.1-1.1,2.3-2.2,3.7-3c1.2-0.8,2.5-1.4,4-1.6c0.6-0.1,1.5-0.5,1.7,0.6c0.3,1.2,0,2.1-1.1,2.3c-1.9,0.5-3.5,1.6-4.9,2.8&#10;&#9;&#9;c-1.6,1.4-3.2,2.9-4.8,4.3C974.9,579,971.4,580.4,967.3,580.7z" transform="matrix(1, 0, 0, 1, 0, 0)"/><text transform="matrix(1, 0, 0, 1, 615.3032836914062, 643.10498046875)" font-family="'MyriadPro-Regular'" font-size="12px" style="font-family: 'Myriad Pro'; font-size: 12px; white-space: pre;">Free Wolf Vector</text>
</svg>